SplineFontDB: 3.2
FontName: Pixel-12x12-condensed
FullName: Pixel 12x12
FamilyName: Pixel-12x12
Weight: Regular
Copyright: Copyright (c) 2024, CTCL
UComments: "2024-5-14: Created with FontForge (http://fontforge.org)"
Version: 0.1.0
ItalicAngle: 0
UnderlinePosition: -128
UnderlineWidth: 64
Ascent: 768
Descent: 256
InvalidEm: 0
LayerCount: 2
Layer: 0 0 "Back" 1
Layer: 1 0 "Fore" 0
XUID: [1021 591 -1735377019 13039367]
StyleMap: 0x0000
FSType: 0
OS2Version: 0
OS2_WeightWidthSlopeOnly: 0
OS2_UseTypoMetrics: 1
CreationTime: 1715699498
ModificationTime: 1717336140
PfmFamily: 17
TTFWeight: 400
TTFWidth: 3
LineGap: 92
VLineGap: 0
OS2TypoAscent: 0
OS2TypoAOffset: 1
OS2TypoDescent: 0
OS2TypoDOffset: 1
OS2TypoLinegap: 92
OS2WinAscent: 0
OS2WinAOffset: 1
OS2WinDescent: 0
OS2WinDOffset: 1
HheadAscent: 0
HheadAOffset: 1
HheadDescent: 0
HheadDOffset: 1
OS2Vendor: 'PfEd'
MarkAttachClasses: 1
DEI: 91125
LangName: 1033
Encoding: ISO8859-1
UnicodeInterp: none
NameList: AGL For New Fonts
DisplaySize: -48
AntiAlias: 1
FitToEm: 0
WinInfo: 0 38 14
BeginPrivate: 0
EndPrivate
TeXData: 1 0 0 1048576 524288 349525 699051 1048576 349525 783286 444596 497025 792723 393216 433062 380633 303038 157286 324010 404750 52429 2506097 1059062 262144
BeginChars: 256 224

StartChar: A
Encoding: 65 65 0
Width: 640
Flags: HW
LayerCount: 2
Fore
SplineSet
64 768 m 1
 128 768 l 1
 192 768 l 1
 256 768 l 1
 320 768 l 1
 384 768 l 1
 448 768 l 1
 448 704 l 1
 512 704 l 1
 512 640 l 1
 512 576 l 1
 512 512 l 1
 512 448 l 1
 512 384 l 1
 512 320 l 1
 512 256 l 1
 512 192 l 1
 512 128 l 1
 512 64 l 1
 512 0 l 1
 448 0 l 1
 384 0 l 1
 384 64 l 1
 384 128 l 1
 384 192 l 1
 384 256 l 1
 384 320 l 1
 320 320 l 1
 256 320 l 1
 192 320 l 1
 128 320 l 1
 128 256 l 1
 128 192 l 1
 128 128 l 1
 128 64 l 1
 128 0 l 1
 64 0 l 1
 0 0 l 1
 0 64 l 1
 0 128 l 1
 0 192 l 1
 0 256 l 1
 0 320 l 1
 0 384 l 1
 0 448 l 1
 0 512 l 1
 0 576 l 1
 0 640 l 1
 0 704 l 1
 64 704 l 1
 64 768 l 1
128 640 m 1
 128 576 l 1
 128 512 l 1
 128 448 l 1
 192 448 l 1
 256 448 l 1
 320 448 l 1
 384 448 l 1
 384 512 l 1
 384 576 l 1
 384 640 l 1
 320 640 l 1
 256 640 l 1
 192 640 l 1
 128 640 l 1
EndSplineSet
EndChar

StartChar: B
Encoding: 66 66 1
Width: 640
Flags: HW
LayerCount: 2
Fore
SplineSet
0 768 m 1
 64 768 l 1
 128 768 l 1
 192 768 l 1
 256 768 l 1
 320 768 l 1
 384 768 l 1
 448 768 l 1
 448 704 l 1
 512 704 l 1
 512 640 l 1
 512 576 l 1
 512 512 l 1
 512 448 l 1
 448 448 l 1
 448 384 l 1
 448 320 l 1
 512 320 l 1
 512 256 l 1
 512 192 l 1
 512 128 l 1
 512 64 l 1
 448 64 l 1
 448 0 l 1
 384 0 l 1
 320 0 l 1
 256 0 l 1
 192 0 l 1
 128 0 l 1
 64 0 l 1
 0 0 l 1
 0 64 l 1
 0 128 l 1
 0 192 l 1
 0 256 l 1
 0 320 l 1
 0 384 l 1
 0 448 l 1
 0 512 l 1
 0 576 l 1
 0 640 l 1
 0 704 l 1
 0 768 l 1
128 640 m 1
 128 576 l 1
 128 512 l 1
 128 448 l 1
 192 448 l 1
 256 448 l 1
 320 448 l 1
 384 448 l 1
 384 512 l 1
 384 576 l 1
 384 640 l 1
 320 640 l 1
 256 640 l 1
 192 640 l 1
 128 640 l 1
128 320 m 1
 128 256 l 1
 128 192 l 1
 128 128 l 1
 192 128 l 1
 256 128 l 1
 320 128 l 1
 384 128 l 1
 384 192 l 1
 384 256 l 1
 384 320 l 1
 320 320 l 1
 256 320 l 1
 192 320 l 1
 128 320 l 1
EndSplineSet
EndChar

StartChar: C
Encoding: 67 67 2
Width: 640
Flags: HW
LayerCount: 2
Fore
SplineSet
64 768 m 1
 128 768 l 1
 192 768 l 1
 256 768 l 1
 320 768 l 1
 384 768 l 1
 448 768 l 1
 512 768 l 1
 512 704 l 1
 512 640 l 1
 448 640 l 1
 384 640 l 1
 320 640 l 1
 256 640 l 1
 192 640 l 1
 128 640 l 1
 128 576 l 1
 128 512 l 1
 128 448 l 1
 128 384 l 1
 128 320 l 1
 128 256 l 1
 128 192 l 1
 128 128 l 1
 192 128 l 1
 256 128 l 1
 320 128 l 1
 384 128 l 1
 448 128 l 1
 512 128 l 1
 512 64 l 1
 512 0 l 1
 448 0 l 1
 384 0 l 1
 320 0 l 1
 256 0 l 1
 192 0 l 1
 128 0 l 1
 64 0 l 1
 64 64 l 1
 0 64 l 1
 0 128 l 1
 0 192 l 1
 0 256 l 1
 0 320 l 1
 0 384 l 1
 0 448 l 1
 0 512 l 1
 0 576 l 1
 0 640 l 1
 0 704 l 1
 64 704 l 1
 64 768 l 1
EndSplineSet
EndChar

StartChar: D
Encoding: 68 68 3
Width: 640
Flags: HW
LayerCount: 2
Fore
SplineSet
0 768 m 1
 64 768 l 1
 128 768 l 1
 192 768 l 1
 256 768 l 1
 320 768 l 1
 384 768 l 1
 448 768 l 1
 448 704 l 1
 512 704 l 1
 512 640 l 1
 512 576 l 1
 512 512 l 1
 512 448 l 1
 512 384 l 1
 512 320 l 1
 512 256 l 1
 512 192 l 1
 512 128 l 1
 512 64 l 1
 448 64 l 1
 448 0 l 1
 384 0 l 1
 320 0 l 1
 256 0 l 1
 192 0 l 1
 128 0 l 1
 64 0 l 1
 0 0 l 1
 0 64 l 1
 0 128 l 1
 0 192 l 1
 0 256 l 1
 0 320 l 1
 0 384 l 1
 0 448 l 1
 0 512 l 1
 0 576 l 1
 0 640 l 1
 0 704 l 1
 0 768 l 1
128 640 m 1
 128 576 l 1
 128 512 l 1
 128 448 l 1
 128 384 l 1
 128 320 l 1
 128 256 l 1
 128 192 l 1
 128 128 l 1
 192 128 l 1
 256 128 l 1
 320 128 l 1
 384 128 l 1
 384 192 l 1
 384 256 l 1
 384 320 l 1
 384 384 l 1
 384 448 l 1
 384 512 l 1
 384 576 l 1
 384 640 l 1
 320 640 l 1
 256 640 l 1
 192 640 l 1
 128 640 l 1
EndSplineSet
EndChar

StartChar: E
Encoding: 69 69 4
Width: 640
Flags: HW
LayerCount: 2
Fore
SplineSet
0 768 m 1
 64 768 l 1
 128 768 l 1
 192 768 l 1
 256 768 l 1
 320 768 l 1
 384 768 l 1
 448 768 l 1
 512 768 l 1
 512 704 l 1
 512 640 l 1
 448 640 l 1
 384 640 l 1
 320 640 l 1
 256 640 l 1
 192 640 l 1
 128 640 l 1
 128 576 l 1
 128 512 l 1
 128 448 l 1
 192 448 l 1
 256 448 l 1
 320 448 l 1
 384 448 l 1
 448 448 l 1
 512 448 l 1
 512 384 l 1
 512 320 l 1
 448 320 l 1
 384 320 l 1
 320 320 l 1
 256 320 l 1
 192 320 l 1
 128 320 l 1
 128 256 l 1
 128 192 l 1
 128 128 l 1
 192 128 l 1
 256 128 l 1
 320 128 l 1
 384 128 l 1
 448 128 l 1
 512 128 l 1
 512 64 l 1
 512 0 l 1
 448 0 l 1
 384 0 l 1
 320 0 l 1
 256 0 l 1
 192 0 l 1
 128 0 l 1
 64 0 l 1
 0 0 l 1
 0 64 l 1
 0 128 l 1
 0 192 l 1
 0 256 l 1
 0 320 l 1
 0 384 l 1
 0 448 l 1
 0 512 l 1
 0 576 l 1
 0 640 l 1
 0 704 l 1
 0 768 l 1
EndSplineSet
EndChar

StartChar: F
Encoding: 70 70 5
Width: 640
Flags: HW
LayerCount: 2
Fore
SplineSet
0 768 m 1
 64 768 l 1
 128 768 l 1
 192 768 l 1
 256 768 l 1
 320 768 l 1
 384 768 l 1
 448 768 l 1
 512 768 l 1
 512 704 l 1
 512 640 l 1
 448 640 l 1
 384 640 l 1
 320 640 l 1
 256 640 l 1
 192 640 l 1
 128 640 l 1
 128 576 l 1
 128 512 l 1
 128 448 l 1
 192 448 l 1
 256 448 l 1
 320 448 l 1
 384 448 l 1
 384 384 l 1
 384 320 l 1
 320 320 l 1
 256 320 l 1
 192 320 l 1
 128 320 l 1
 128 256 l 1
 128 192 l 1
 128 128 l 1
 128 64 l 1
 128 0 l 1
 64 0 l 1
 0 0 l 1
 0 64 l 1
 0 128 l 1
 0 192 l 1
 0 256 l 1
 0 320 l 1
 0 384 l 1
 0 448 l 1
 0 512 l 1
 0 576 l 1
 0 640 l 1
 0 704 l 1
 0 768 l 1
EndSplineSet
EndChar

StartChar: G
Encoding: 71 71 6
Width: 640
Flags: HW
LayerCount: 2
Fore
SplineSet
64 768 m 1
 128 768 l 1
 192 768 l 1
 256 768 l 1
 320 768 l 1
 384 768 l 1
 448 768 l 1
 512 768 l 1
 512 704 l 1
 512 640 l 1
 448 640 l 1
 384 640 l 1
 320 640 l 1
 256 640 l 1
 192 640 l 1
 128 640 l 1
 128 576 l 1
 128 512 l 1
 128 448 l 1
 128 384 l 1
 128 320 l 1
 128 256 l 1
 128 192 l 1
 128 128 l 1
 192 128 l 1
 256 128 l 1
 320 128 l 1
 384 128 l 1
 384 192 l 1
 384 256 l 1
 384 320 l 1
 320 320 l 1
 256 320 l 1
 256 384 l 1
 256 448 l 1
 320 448 l 1
 384 448 l 1
 448 448 l 1
 448 384 l 1
 512 384 l 1
 512 320 l 1
 512 256 l 1
 512 192 l 1
 512 128 l 1
 512 64 l 1
 448 64 l 1
 448 0 l 1
 384 0 l 1
 320 0 l 1
 256 0 l 1
 192 0 l 1
 128 0 l 1
 64 0 l 1
 64 64 l 1
 0 64 l 1
 0 128 l 1
 0 192 l 1
 0 256 l 1
 0 320 l 1
 0 384 l 1
 0 448 l 1
 0 512 l 1
 0 576 l 1
 0 640 l 1
 0 704 l 1
 64 704 l 1
 64 768 l 1
EndSplineSet
EndChar

StartChar: H
Encoding: 72 72 7
Width: 640
Flags: HW
LayerCount: 2
Fore
SplineSet
0 768 m 1
 64 768 l 1
 128 768 l 1
 128 704 l 1
 128 640 l 1
 128 576 l 1
 128 512 l 1
 128 448 l 1
 192 448 l 1
 256 448 l 1
 320 448 l 1
 384 448 l 1
 384 512 l 1
 384 576 l 1
 384 640 l 1
 384 704 l 1
 384 768 l 1
 448 768 l 1
 512 768 l 1
 512 704 l 1
 512 640 l 1
 512 576 l 1
 512 512 l 1
 512 448 l 1
 512 384 l 1
 512 320 l 1
 512 256 l 1
 512 192 l 1
 512 128 l 1
 512 64 l 1
 512 0 l 1
 448 0 l 1
 384 0 l 1
 384 64 l 1
 384 128 l 1
 384 192 l 1
 384 256 l 1
 384 320 l 1
 320 320 l 1
 256 320 l 1
 192 320 l 1
 128 320 l 1
 128 256 l 1
 128 192 l 1
 128 128 l 1
 128 64 l 1
 128 0 l 1
 64 0 l 1
 0 0 l 1
 0 64 l 1
 0 128 l 1
 0 192 l 1
 0 256 l 1
 0 320 l 1
 0 384 l 1
 0 448 l 1
 0 512 l 1
 0 576 l 1
 0 640 l 1
 0 704 l 1
 0 768 l 1
EndSplineSet
EndChar

StartChar: I
Encoding: 73 73 8
Width: 640
Flags: HW
LayerCount: 2
Fore
SplineSet
0 768 m 1
 64 768 l 1
 128 768 l 1
 192 768 l 1
 256 768 l 1
 320 768 l 1
 384 768 l 1
 448 768 l 1
 512 768 l 1
 512 704 l 1
 512 640 l 1
 448 640 l 1
 384 640 l 1
 320 640 l 1
 320 576 l 1
 320 512 l 1
 320 448 l 1
 320 384 l 1
 320 320 l 1
 320 256 l 1
 320 192 l 1
 320 128 l 1
 384 128 l 1
 448 128 l 1
 512 128 l 1
 512 64 l 1
 512 0 l 1
 448 0 l 1
 384 0 l 1
 320 0 l 1
 256 0 l 1
 192 0 l 1
 128 0 l 1
 64 0 l 1
 0 0 l 1
 0 64 l 1
 0 128 l 1
 64 128 l 1
 128 128 l 1
 192 128 l 1
 192 192 l 1
 192 256 l 1
 192 320 l 1
 192 384 l 1
 192 448 l 1
 192 512 l 1
 192 576 l 1
 192 640 l 1
 128 640 l 1
 64 640 l 1
 0 640 l 1
 0 704 l 1
 0 768 l 1
EndSplineSet
EndChar

StartChar: J
Encoding: 74 74 9
Width: 640
Flags: HW
LayerCount: 2
Fore
SplineSet
384 768 m 1
 448 768 l 1
 512 768 l 1
 512 704 l 1
 512 640 l 1
 512 576 l 1
 512 512 l 1
 512 448 l 1
 512 384 l 1
 512 320 l 1
 512 256 l 1
 512 192 l 1
 512 128 l 1
 512 64 l 1
 448 64 l 1
 448 0 l 1
 384 0 l 1
 320 0 l 1
 256 0 l 1
 192 0 l 1
 128 0 l 1
 64 0 l 1
 64 64 l 1
 0 64 l 1
 0 128 l 1
 0 192 l 1
 0 256 l 1
 64 256 l 1
 128 256 l 1
 128 192 l 1
 192 192 l 1
 192 128 l 1
 256 128 l 1
 320 128 l 1
 320 192 l 1
 384 192 l 1
 384 256 l 1
 384 320 l 1
 384 384 l 1
 384 448 l 1
 384 512 l 1
 384 576 l 1
 384 640 l 1
 384 704 l 1
 384 768 l 1
EndSplineSet
EndChar

StartChar: K
Encoding: 75 75 10
Width: 640
Flags: HW
LayerCount: 2
Fore
SplineSet
0 768 m 1
 64 768 l 1
 128 768 l 1
 128 704 l 1
 128 640 l 1
 128 576 l 1
 128 512 l 1
 128 448 l 1
 192 448 l 1
 192 512 l 1
 256 512 l 1
 256 576 l 1
 320 576 l 1
 320 640 l 1
 384 640 l 1
 384 704 l 1
 384 768 l 1
 448 768 l 1
 512 768 l 1
 512 704 l 1
 512 640 l 1
 512 576 l 1
 448 576 l 1
 448 512 l 1
 384 512 l 1
 384 448 l 1
 320 448 l 1
 320 384 l 1
 320 320 l 1
 384 320 l 1
 384 256 l 1
 448 256 l 1
 448 192 l 1
 512 192 l 1
 512 128 l 1
 512 64 l 1
 512 0 l 1
 448 0 l 1
 384 0 l 1
 384 64 l 1
 384 128 l 1
 320 128 l 1
 320 192 l 1
 256 192 l 1
 256 256 l 1
 192 256 l 1
 192 320 l 1
 128 320 l 1
 128 256 l 1
 128 192 l 1
 128 128 l 1
 128 64 l 1
 128 0 l 1
 64 0 l 1
 0 0 l 1
 0 64 l 1
 0 128 l 1
 0 192 l 1
 0 256 l 1
 0 320 l 1
 0 384 l 1
 0 448 l 1
 0 512 l 1
 0 576 l 1
 0 640 l 1
 0 704 l 1
 0 768 l 1
EndSplineSet
EndChar

StartChar: L
Encoding: 76 76 11
Width: 640
Flags: HW
LayerCount: 2
Fore
SplineSet
0 768 m 1
 64 768 l 1
 128 768 l 1
 128 704 l 1
 128 640 l 1
 128 576 l 1
 128 512 l 1
 128 448 l 1
 128 384 l 1
 128 320 l 1
 128 256 l 1
 128 192 l 1
 128 128 l 1
 192 128 l 1
 256 128 l 1
 320 128 l 1
 384 128 l 1
 448 128 l 1
 512 128 l 1
 512 64 l 1
 512 0 l 1
 448 0 l 1
 384 0 l 1
 320 0 l 1
 256 0 l 1
 192 0 l 1
 128 0 l 1
 64 0 l 1
 0 0 l 1
 0 64 l 1
 0 128 l 1
 0 192 l 1
 0 256 l 1
 0 320 l 1
 0 384 l 1
 0 448 l 1
 0 512 l 1
 0 576 l 1
 0 640 l 1
 0 704 l 1
 0 768 l 1
EndSplineSet
EndChar

StartChar: M
Encoding: 77 77 12
Width: 640
Flags: HW
LayerCount: 2
Fore
SplineSet
0 768 m 1
 64 768 l 1
 128 768 l 1
 128 704 l 1
 192 704 l 1
 192 640 l 1
 256 640 l 1
 320 640 l 1
 320 704 l 1
 384 704 l 1
 384 768 l 1
 448 768 l 1
 512 768 l 1
 512 704 l 1
 512 640 l 1
 512 576 l 1
 512 512 l 1
 512 448 l 1
 512 384 l 1
 512 320 l 1
 512 256 l 1
 512 192 l 1
 512 128 l 1
 512 64 l 1
 512 0 l 1
 448 0 l 1
 384 0 l 1
 384 64 l 1
 384 128 l 1
 384 192 l 1
 384 256 l 1
 384 320 l 1
 384 384 l 1
 384 448 l 1
 384 512 l 1
 384 576 l 1
 320 576 l 1
 320 512 l 1
 256 512 l 1
 192 512 l 1
 192 576 l 1
 128 576 l 1
 128 512 l 1
 128 448 l 1
 128 384 l 1
 128 320 l 1
 128 256 l 1
 128 192 l 1
 128 128 l 1
 128 64 l 1
 128 0 l 1
 64 0 l 1
 0 0 l 1
 0 64 l 1
 0 128 l 1
 0 192 l 1
 0 256 l 1
 0 320 l 1
 0 384 l 1
 0 448 l 1
 0 512 l 1
 0 576 l 1
 0 640 l 1
 0 704 l 1
 0 768 l 1
EndSplineSet
EndChar

StartChar: N
Encoding: 78 78 13
Width: 640
Flags: HW
LayerCount: 2
Fore
SplineSet
0 768 m 1
 64 768 l 1
 128 768 l 1
 128 704 l 1
 192 704 l 1
 192 640 l 1
 256 640 l 1
 256 576 l 1
 320 576 l 1
 320 512 l 1
 384 512 l 1
 384 576 l 1
 384 640 l 1
 384 704 l 1
 384 768 l 1
 448 768 l 1
 512 768 l 1
 512 704 l 1
 512 640 l 1
 512 576 l 1
 512 512 l 1
 512 448 l 1
 512 384 l 1
 512 320 l 1
 512 256 l 1
 512 192 l 1
 512 128 l 1
 512 64 l 1
 512 0 l 1
 448 0 l 1
 384 0 l 1
 384 64 l 1
 384 128 l 1
 384 192 l 1
 384 256 l 1
 384 320 l 1
 384 384 l 1
 320 384 l 1
 320 448 l 1
 256 448 l 1
 256 512 l 1
 192 512 l 1
 192 576 l 1
 128 576 l 1
 128 512 l 1
 128 448 l 1
 128 384 l 1
 128 320 l 1
 128 256 l 1
 128 192 l 1
 128 128 l 1
 128 64 l 1
 128 0 l 1
 64 0 l 1
 0 0 l 1
 0 64 l 1
 0 128 l 1
 0 192 l 1
 0 256 l 1
 0 320 l 1
 0 384 l 1
 0 448 l 1
 0 512 l 1
 0 576 l 1
 0 640 l 1
 0 704 l 1
 0 768 l 1
EndSplineSet
EndChar

StartChar: O
Encoding: 79 79 14
Width: 640
Flags: HW
LayerCount: 2
Fore
SplineSet
64 768 m 1
 128 768 l 1
 192 768 l 1
 256 768 l 1
 320 768 l 1
 384 768 l 1
 448 768 l 1
 448 704 l 1
 512 704 l 1
 512 640 l 1
 512 576 l 1
 512 512 l 1
 512 448 l 1
 512 384 l 1
 512 320 l 1
 512 256 l 1
 512 192 l 1
 512 128 l 1
 512 64 l 1
 448 64 l 1
 448 0 l 1
 384 0 l 1
 320 0 l 1
 256 0 l 1
 192 0 l 1
 128 0 l 1
 64 0 l 1
 64 64 l 1
 0 64 l 1
 0 128 l 1
 0 192 l 1
 0 256 l 1
 0 320 l 1
 0 384 l 1
 0 448 l 1
 0 512 l 1
 0 576 l 1
 0 640 l 1
 0 704 l 1
 64 704 l 1
 64 768 l 1
128 640 m 1
 128 576 l 1
 128 512 l 1
 128 448 l 1
 128 384 l 1
 128 320 l 1
 128 256 l 1
 128 192 l 1
 128 128 l 1
 192 128 l 1
 256 128 l 1
 320 128 l 1
 384 128 l 1
 384 192 l 1
 384 256 l 1
 384 320 l 1
 384 384 l 1
 384 448 l 1
 384 512 l 1
 384 576 l 1
 384 640 l 1
 320 640 l 1
 256 640 l 1
 192 640 l 1
 128 640 l 1
EndSplineSet
EndChar

StartChar: P
Encoding: 80 80 15
Width: 640
Flags: HW
LayerCount: 2
Fore
SplineSet
0 768 m 1
 64 768 l 1
 128 768 l 1
 192 768 l 1
 256 768 l 1
 320 768 l 1
 384 768 l 1
 448 768 l 1
 448 704 l 1
 512 704 l 1
 512 640 l 1
 512 576 l 1
 512 512 l 1
 512 448 l 1
 512 384 l 1
 448 384 l 1
 448 320 l 1
 384 320 l 1
 320 320 l 1
 256 320 l 1
 192 320 l 1
 128 320 l 1
 128 256 l 1
 128 192 l 1
 128 128 l 1
 128 64 l 1
 128 0 l 1
 64 0 l 1
 0 0 l 1
 0 64 l 1
 0 128 l 1
 0 192 l 1
 0 256 l 1
 0 320 l 1
 0 384 l 1
 0 448 l 1
 0 512 l 1
 0 576 l 1
 0 640 l 1
 0 704 l 1
 0 768 l 1
128 640 m 1
 128 576 l 1
 128 512 l 1
 128 448 l 1
 192 448 l 1
 256 448 l 1
 320 448 l 1
 384 448 l 1
 384 512 l 1
 384 576 l 1
 384 640 l 1
 320 640 l 1
 256 640 l 1
 192 640 l 1
 128 640 l 1
EndSplineSet
EndChar

StartChar: Q
Encoding: 81 81 16
Width: 640
Flags: HW
LayerCount: 2
Fore
SplineSet
64 768 m 1
 128 768 l 1
 192 768 l 1
 256 768 l 1
 320 768 l 1
 384 768 l 1
 448 768 l 1
 448 704 l 1
 512 704 l 1
 512 640 l 1
 512 576 l 1
 512 512 l 1
 512 448 l 1
 512 384 l 1
 512 320 l 1
 512 256 l 1
 512 192 l 1
 512 128 l 1
 512 64 l 1
 448 64 l 1
 448 0 l 1
 384 0 l 1
 320 0 l 1
 256 0 l 1
 192 0 l 1
 128 0 l 1
 64 0 l 1
 64 64 l 1
 0 64 l 1
 0 128 l 1
 0 192 l 1
 0 256 l 1
 0 320 l 1
 0 384 l 1
 0 448 l 1
 0 512 l 1
 0 576 l 1
 0 640 l 1
 0 704 l 1
 64 704 l 1
 64 768 l 1
128 640 m 1
 128 576 l 1
 128 512 l 1
 128 448 l 1
 128 384 l 1
 128 320 l 1
 128 256 l 1
 128 192 l 1
 128 128 l 1
 192 128 l 1
 256 128 l 1
 256 192 l 1
 256 256 l 1
 320 256 l 1
 384 256 l 1
 384 320 l 1
 384 384 l 1
 384 448 l 1
 384 512 l 1
 384 576 l 1
 384 640 l 1
 320 640 l 1
 256 640 l 1
 192 640 l 1
 128 640 l 1
EndSplineSet
EndChar

StartChar: R
Encoding: 82 82 17
Width: 640
Flags: HW
LayerCount: 2
Fore
SplineSet
0 768 m 1
 64 768 l 1
 128 768 l 1
 192 768 l 1
 256 768 l 1
 320 768 l 1
 384 768 l 1
 448 768 l 1
 448 704 l 1
 512 704 l 1
 512 640 l 1
 512 576 l 1
 512 512 l 1
 512 448 l 1
 512 384 l 1
 448 384 l 1
 448 320 l 1
 384 320 l 1
 320 320 l 1
 256 320 l 1
 256 256 l 1
 320 256 l 1
 320 192 l 1
 384 192 l 1
 384 128 l 1
 448 128 l 1
 448 64 l 1
 512 64 l 1
 512 0 l 1
 448 0 l 1
 384 0 l 1
 320 0 l 1
 320 64 l 1
 256 64 l 1
 256 128 l 1
 192 128 l 1
 192 192 l 1
 128 192 l 1
 128 128 l 1
 128 64 l 1
 128 0 l 1
 64 0 l 1
 0 0 l 1
 0 64 l 1
 0 128 l 1
 0 192 l 1
 0 256 l 1
 0 320 l 1
 0 384 l 1
 0 448 l 1
 0 512 l 1
 0 576 l 1
 0 640 l 1
 0 704 l 1
 0 768 l 1
128 640 m 1
 128 576 l 1
 128 512 l 1
 128 448 l 1
 192 448 l 1
 256 448 l 1
 320 448 l 1
 384 448 l 1
 384 512 l 1
 384 576 l 1
 384 640 l 1
 320 640 l 1
 256 640 l 1
 192 640 l 1
 128 640 l 1
EndSplineSet
EndChar

StartChar: S
Encoding: 83 83 18
Width: 640
Flags: HW
LayerCount: 2
Fore
SplineSet
64 768 m 1
 128 768 l 1
 192 768 l 1
 256 768 l 1
 320 768 l 1
 384 768 l 1
 448 768 l 1
 512 768 l 1
 512 704 l 1
 512 640 l 1
 448 640 l 1
 384 640 l 1
 320 640 l 1
 256 640 l 1
 192 640 l 1
 128 640 l 1
 128 576 l 1
 128 512 l 1
 128 448 l 1
 192 448 l 1
 256 448 l 1
 320 448 l 1
 384 448 l 1
 448 448 l 1
 448 384 l 1
 512 384 l 1
 512 320 l 1
 512 256 l 1
 512 192 l 1
 512 128 l 1
 512 64 l 1
 448 64 l 1
 448 0 l 1
 384 0 l 1
 320 0 l 1
 256 0 l 1
 192 0 l 1
 128 0 l 1
 64 0 l 1
 0 0 l 1
 0 64 l 1
 0 128 l 1
 64 128 l 1
 128 128 l 1
 192 128 l 1
 256 128 l 1
 320 128 l 1
 384 128 l 1
 384 192 l 1
 384 256 l 1
 384 320 l 1
 320 320 l 1
 256 320 l 1
 192 320 l 1
 128 320 l 1
 64 320 l 1
 64 384 l 1
 0 384 l 1
 0 448 l 1
 0 512 l 1
 0 576 l 1
 0 640 l 1
 0 704 l 1
 64 704 l 1
 64 768 l 1
EndSplineSet
EndChar

StartChar: T
Encoding: 84 84 19
Width: 640
Flags: HW
LayerCount: 2
Fore
SplineSet
0 768 m 1
 64 768 l 1
 128 768 l 1
 192 768 l 1
 256 768 l 1
 320 768 l 1
 384 768 l 1
 448 768 l 1
 512 768 l 1
 512 704 l 1
 512 640 l 1
 448 640 l 1
 384 640 l 1
 320 640 l 1
 320 576 l 1
 320 512 l 1
 320 448 l 1
 320 384 l 1
 320 320 l 1
 320 256 l 1
 320 192 l 1
 320 128 l 1
 320 64 l 1
 320 0 l 1
 256 0 l 1
 192 0 l 1
 192 64 l 1
 192 128 l 1
 192 192 l 1
 192 256 l 1
 192 320 l 1
 192 384 l 1
 192 448 l 1
 192 512 l 1
 192 576 l 1
 192 640 l 1
 128 640 l 1
 64 640 l 1
 0 640 l 1
 0 704 l 1
 0 768 l 1
EndSplineSet
EndChar

StartChar: U
Encoding: 85 85 20
Width: 640
Flags: HW
LayerCount: 2
Fore
SplineSet
0 768 m 1
 64 768 l 1
 128 768 l 1
 128 704 l 1
 128 640 l 1
 128 576 l 1
 128 512 l 1
 128 448 l 1
 128 384 l 1
 128 320 l 1
 128 256 l 1
 128 192 l 1
 128 128 l 1
 192 128 l 1
 256 128 l 1
 320 128 l 1
 384 128 l 1
 384 192 l 1
 384 256 l 1
 384 320 l 1
 384 384 l 1
 384 448 l 1
 384 512 l 1
 384 576 l 1
 384 640 l 1
 384 704 l 1
 384 768 l 1
 448 768 l 1
 512 768 l 1
 512 704 l 1
 512 640 l 1
 512 576 l 1
 512 512 l 1
 512 448 l 1
 512 384 l 1
 512 320 l 1
 512 256 l 1
 512 192 l 1
 512 128 l 1
 512 64 l 1
 448 64 l 1
 448 0 l 1
 384 0 l 1
 320 0 l 1
 256 0 l 1
 192 0 l 1
 128 0 l 1
 64 0 l 1
 64 64 l 1
 0 64 l 1
 0 128 l 1
 0 192 l 1
 0 256 l 1
 0 320 l 1
 0 384 l 1
 0 448 l 1
 0 512 l 1
 0 576 l 1
 0 640 l 1
 0 704 l 1
 0 768 l 1
EndSplineSet
EndChar

StartChar: V
Encoding: 86 86 21
Width: 640
Flags: HW
LayerCount: 2
Fore
SplineSet
0 768 m 1
 64 768 l 1
 128 768 l 1
 128 704 l 1
 128 640 l 1
 128 576 l 1
 128 512 l 1
 128 448 l 1
 128 384 l 1
 128 320 l 1
 128 256 l 1
 192 256 l 1
 192 192 l 1
 256 192 l 1
 320 192 l 1
 320 256 l 1
 384 256 l 1
 384 320 l 1
 384 384 l 1
 384 448 l 1
 384 512 l 1
 384 576 l 1
 384 640 l 1
 384 704 l 1
 384 768 l 1
 448 768 l 1
 512 768 l 1
 512 704 l 1
 512 640 l 1
 512 576 l 1
 512 512 l 1
 512 448 l 1
 512 384 l 1
 512 320 l 1
 512 256 l 1
 512 192 l 1
 448 192 l 1
 448 128 l 1
 384 128 l 1
 384 64 l 1
 320 64 l 1
 320 0 l 1
 256 0 l 1
 192 0 l 1
 192 64 l 1
 128 64 l 1
 128 128 l 1
 64 128 l 1
 64 192 l 1
 0 192 l 1
 0 256 l 1
 0 320 l 1
 0 384 l 1
 0 448 l 1
 0 512 l 1
 0 576 l 1
 0 640 l 1
 0 704 l 1
 0 768 l 1
EndSplineSet
EndChar

StartChar: W
Encoding: 87 87 22
Width: 640
Flags: HW
LayerCount: 2
Fore
SplineSet
0 768 m 1
 64 768 l 1
 128 768 l 1
 128 704 l 1
 128 640 l 1
 128 576 l 1
 128 512 l 1
 128 448 l 1
 128 384 l 1
 128 320 l 1
 128 256 l 1
 128 192 l 1
 192 192 l 1
 192 256 l 1
 256 256 l 1
 320 256 l 1
 320 192 l 1
 384 192 l 1
 384 256 l 1
 384 320 l 1
 384 384 l 1
 384 448 l 1
 384 512 l 1
 384 576 l 1
 384 640 l 1
 384 704 l 1
 384 768 l 1
 448 768 l 1
 512 768 l 1
 512 704 l 1
 512 640 l 1
 512 576 l 1
 512 512 l 1
 512 448 l 1
 512 384 l 1
 512 320 l 1
 512 256 l 1
 512 192 l 1
 512 128 l 1
 512 64 l 1
 512 0 l 1
 448 0 l 1
 384 0 l 1
 384 64 l 1
 320 64 l 1
 320 128 l 1
 256 128 l 1
 192 128 l 1
 192 64 l 1
 128 64 l 1
 128 0 l 1
 64 0 l 1
 0 0 l 1
 0 64 l 1
 0 128 l 1
 0 192 l 1
 0 256 l 1
 0 320 l 1
 0 384 l 1
 0 448 l 1
 0 512 l 1
 0 576 l 1
 0 640 l 1
 0 704 l 1
 0 768 l 1
EndSplineSet
EndChar

StartChar: X
Encoding: 88 88 23
Width: 640
Flags: HW
LayerCount: 2
Fore
SplineSet
0 768 m 1
 64 768 l 1
 128 768 l 1
 128 704 l 1
 128 640 l 1
 128 576 l 1
 192 576 l 1
 192 512 l 1
 256 512 l 1
 320 512 l 1
 320 576 l 1
 384 576 l 1
 384 640 l 1
 384 704 l 1
 384 768 l 1
 448 768 l 1
 512 768 l 1
 512 704 l 1
 512 640 l 1
 512 576 l 1
 512 512 l 1
 448 512 l 1
 448 448 l 1
 384 448 l 1
 384 384 l 1
 384 320 l 1
 448 320 l 1
 448 256 l 1
 512 256 l 1
 512 192 l 1
 512 128 l 1
 512 64 l 1
 512 0 l 1
 448 0 l 1
 384 0 l 1
 384 64 l 1
 384 128 l 1
 384 192 l 1
 320 192 l 1
 320 256 l 1
 256 256 l 1
 192 256 l 1
 192 192 l 1
 128 192 l 1
 128 128 l 1
 128 64 l 1
 128 0 l 1
 64 0 l 1
 0 0 l 1
 0 64 l 1
 0 128 l 1
 0 192 l 1
 0 256 l 1
 64 256 l 1
 64 320 l 1
 128 320 l 1
 128 384 l 1
 128 448 l 1
 64 448 l 1
 64 512 l 1
 0 512 l 1
 0 576 l 1
 0 640 l 1
 0 704 l 1
 0 768 l 1
EndSplineSet
EndChar

StartChar: Y
Encoding: 89 89 24
Width: 640
Flags: HW
LayerCount: 2
Fore
SplineSet
0 768 m 1
 64 768 l 1
 128 768 l 1
 128 704 l 1
 128 640 l 1
 192 640 l 1
 192 576 l 1
 256 576 l 1
 320 576 l 1
 320 640 l 1
 384 640 l 1
 384 704 l 1
 384 768 l 1
 448 768 l 1
 512 768 l 1
 512 704 l 1
 512 640 l 1
 512 576 l 1
 448 576 l 1
 448 512 l 1
 384 512 l 1
 384 448 l 1
 320 448 l 1
 320 384 l 1
 320 320 l 1
 320 256 l 1
 320 192 l 1
 320 128 l 1
 320 64 l 1
 320 0 l 1
 256 0 l 1
 192 0 l 1
 192 64 l 1
 192 128 l 1
 192 192 l 1
 192 256 l 1
 192 320 l 1
 192 384 l 1
 192 448 l 1
 128 448 l 1
 128 512 l 1
 64 512 l 1
 64 576 l 1
 0 576 l 1
 0 640 l 1
 0 704 l 1
 0 768 l 1
EndSplineSet
EndChar

StartChar: Z
Encoding: 90 90 25
Width: 640
Flags: HW
LayerCount: 2
Fore
SplineSet
0 768 m 1
 64 768 l 1
 128 768 l 1
 192 768 l 1
 256 768 l 1
 320 768 l 1
 384 768 l 1
 448 768 l 1
 512 768 l 1
 512 704 l 1
 512 640 l 1
 512 576 l 1
 512 512 l 1
 448 512 l 1
 448 448 l 1
 384 448 l 1
 384 384 l 1
 320 384 l 1
 320 320 l 1
 256 320 l 1
 256 256 l 1
 192 256 l 1
 192 192 l 1
 128 192 l 1
 128 128 l 1
 192 128 l 1
 256 128 l 1
 320 128 l 1
 384 128 l 1
 448 128 l 1
 512 128 l 1
 512 64 l 1
 512 0 l 1
 448 0 l 1
 384 0 l 1
 320 0 l 1
 256 0 l 1
 192 0 l 1
 128 0 l 1
 64 0 l 1
 0 0 l 1
 0 64 l 1
 0 128 l 1
 0 192 l 1
 0 256 l 1
 64 256 l 1
 64 320 l 1
 128 320 l 1
 128 384 l 1
 192 384 l 1
 192 448 l 1
 256 448 l 1
 256 512 l 1
 320 512 l 1
 320 576 l 1
 384 576 l 1
 384 640 l 1
 320 640 l 1
 256 640 l 1
 192 640 l 1
 128 640 l 1
 64 640 l 1
 0 640 l 1
 0 704 l 1
 0 768 l 1
EndSplineSet
EndChar

StartChar: zero
Encoding: 48 48 26
Width: 640
Flags: HW
LayerCount: 2
Fore
SplineSet
64 768 m 1
 128 768 l 1
 192 768 l 1
 256 768 l 1
 320 768 l 1
 384 768 l 1
 448 768 l 1
 448 704 l 1
 512 704 l 1
 512 640 l 1
 512 576 l 1
 512 512 l 1
 512 448 l 1
 512 384 l 1
 512 320 l 1
 512 256 l 1
 512 192 l 1
 512 128 l 1
 512 64 l 1
 448 64 l 1
 448 0 l 1
 384 0 l 1
 320 0 l 1
 256 0 l 1
 192 0 l 1
 128 0 l 1
 64 0 l 1
 64 64 l 1
 0 64 l 1
 0 128 l 1
 0 192 l 1
 0 256 l 1
 0 320 l 1
 0 384 l 1
 0 448 l 1
 0 512 l 1
 0 576 l 1
 0 640 l 1
 0 704 l 1
 64 704 l 1
 64 768 l 1
128 640 m 1
 128 576 l 1
 192 576 l 1
 192 512 l 1
 256 512 l 1
 256 448 l 1
 320 448 l 1
 320 384 l 1
 384 384 l 1
 384 448 l 1
 384 512 l 1
 384 576 l 1
 384 640 l 1
 320 640 l 1
 256 640 l 1
 192 640 l 1
 128 640 l 1
128 384 m 1
 128 320 l 1
 128 256 l 1
 128 192 l 1
 128 128 l 1
 192 128 l 1
 256 128 l 1
 320 128 l 1
 384 128 l 1
 384 192 l 1
 320 192 l 1
 320 256 l 1
 256 256 l 1
 256 320 l 1
 192 320 l 1
 192 384 l 1
 128 384 l 1
EndSplineSet
EndChar

StartChar: one
Encoding: 49 49 27
Width: 640
Flags: HW
LayerCount: 2
Fore
SplineSet
128 768 m 1
 192 768 l 1
 256 768 l 1
 320 768 l 1
 320 704 l 1
 320 640 l 1
 320 576 l 1
 320 512 l 1
 320 448 l 1
 320 384 l 1
 320 320 l 1
 320 256 l 1
 320 192 l 1
 320 128 l 1
 384 128 l 1
 448 128 l 1
 512 128 l 1
 512 64 l 1
 512 0 l 1
 448 0 l 1
 384 0 l 1
 320 0 l 1
 256 0 l 1
 192 0 l 1
 128 0 l 1
 64 0 l 1
 0 0 l 1
 0 64 l 1
 0 128 l 1
 64 128 l 1
 128 128 l 1
 192 128 l 1
 192 192 l 1
 192 256 l 1
 192 320 l 1
 192 384 l 1
 192 448 l 1
 192 512 l 1
 192 576 l 1
 128 576 l 1
 64 576 l 1
 0 576 l 1
 0 640 l 1
 64 640 l 1
 64 704 l 1
 128 704 l 1
 128 768 l 1
EndSplineSet
EndChar

StartChar: two
Encoding: 50 50 28
Width: 640
Flags: HW
LayerCount: 2
Fore
SplineSet
64 768 m 1
 128 768 l 1
 192 768 l 1
 256 768 l 1
 320 768 l 1
 384 768 l 1
 448 768 l 1
 448 704 l 1
 512 704 l 1
 512 640 l 1
 512 576 l 1
 512 512 l 1
 512 448 l 1
 448 448 l 1
 448 384 l 1
 384 384 l 1
 384 320 l 1
 320 320 l 1
 320 256 l 1
 256 256 l 1
 256 192 l 1
 192 192 l 1
 192 128 l 1
 256 128 l 1
 320 128 l 1
 384 128 l 1
 448 128 l 1
 512 128 l 1
 512 64 l 1
 512 0 l 1
 448 0 l 1
 384 0 l 1
 320 0 l 1
 256 0 l 1
 192 0 l 1
 128 0 l 1
 64 0 l 1
 0 0 l 1
 0 64 l 1
 0 128 l 1
 0 192 l 1
 64 192 l 1
 64 256 l 1
 128 256 l 1
 128 320 l 1
 192 320 l 1
 192 384 l 1
 256 384 l 1
 256 448 l 1
 320 448 l 1
 320 512 l 1
 384 512 l 1
 384 576 l 1
 384 640 l 1
 320 640 l 1
 256 640 l 1
 192 640 l 1
 128 640 l 1
 128 576 l 1
 64 576 l 1
 0 576 l 1
 0 640 l 1
 0 704 l 1
 64 704 l 1
 64 768 l 1
EndSplineSet
EndChar

StartChar: three
Encoding: 51 51 29
Width: 640
Flags: HW
LayerCount: 2
Fore
SplineSet
64 768 m 1
 128 768 l 1
 192 768 l 1
 256 768 l 1
 320 768 l 1
 384 768 l 1
 448 768 l 1
 448 704 l 1
 512 704 l 1
 512 640 l 1
 512 576 l 1
 512 512 l 1
 512 448 l 1
 448 448 l 1
 448 384 l 1
 448 320 l 1
 512 320 l 1
 512 256 l 1
 512 192 l 1
 512 128 l 1
 512 64 l 1
 448 64 l 1
 448 0 l 1
 384 0 l 1
 320 0 l 1
 256 0 l 1
 192 0 l 1
 128 0 l 1
 64 0 l 1
 64 64 l 1
 0 64 l 1
 0 128 l 1
 0 192 l 1
 64 192 l 1
 128 192 l 1
 128 128 l 1
 192 128 l 1
 256 128 l 1
 320 128 l 1
 384 128 l 1
 384 192 l 1
 384 256 l 1
 384 320 l 1
 320 320 l 1
 256 320 l 1
 192 320 l 1
 192 384 l 1
 192 448 l 1
 256 448 l 1
 320 448 l 1
 384 448 l 1
 384 512 l 1
 384 576 l 1
 384 640 l 1
 320 640 l 1
 256 640 l 1
 192 640 l 1
 128 640 l 1
 128 576 l 1
 64 576 l 1
 0 576 l 1
 0 640 l 1
 0 704 l 1
 64 704 l 1
 64 768 l 1
EndSplineSet
EndChar

StartChar: four
Encoding: 52 52 30
Width: 640
Flags: HW
LayerCount: 2
Fore
SplineSet
256 768 m 1
 320 768 l 1
 384 768 l 1
 448 768 l 1
 448 704 l 1
 448 640 l 1
 448 576 l 1
 448 512 l 1
 448 448 l 1
 512 448 l 1
 512 384 l 1
 512 320 l 1
 448 320 l 1
 448 256 l 1
 448 192 l 1
 448 128 l 1
 448 64 l 1
 448 0 l 1
 384 0 l 1
 320 0 l 1
 320 64 l 1
 320 128 l 1
 320 192 l 1
 320 256 l 1
 320 320 l 1
 256 320 l 1
 192 320 l 1
 128 320 l 1
 64 320 l 1
 0 320 l 1
 0 384 l 1
 0 448 l 1
 0 512 l 1
 64 512 l 1
 64 576 l 1
 128 576 l 1
 128 640 l 1
 192 640 l 1
 192 704 l 1
 256 704 l 1
 256 768 l 1
256 640 m 1
 256 576 l 1
 192 576 l 1
 192 512 l 1
 128 512 l 1
 128 448 l 1
 192 448 l 1
 256 448 l 1
 320 448 l 1
 320 512 l 1
 320 576 l 1
 320 640 l 1
 256 640 l 1
EndSplineSet
EndChar

StartChar: five
Encoding: 53 53 31
Width: 640
Flags: HW
LayerCount: 2
Fore
SplineSet
0 768 m 1
 64 768 l 1
 128 768 l 1
 192 768 l 1
 256 768 l 1
 320 768 l 1
 384 768 l 1
 448 768 l 1
 512 768 l 1
 512 704 l 1
 512 640 l 1
 448 640 l 1
 384 640 l 1
 320 640 l 1
 256 640 l 1
 192 640 l 1
 128 640 l 1
 128 576 l 1
 128 512 l 1
 128 448 l 1
 192 448 l 1
 256 448 l 1
 320 448 l 1
 384 448 l 1
 448 448 l 1
 448 384 l 1
 512 384 l 1
 512 320 l 1
 512 256 l 1
 512 192 l 1
 512 128 l 1
 512 64 l 1
 448 64 l 1
 448 0 l 1
 384 0 l 1
 320 0 l 1
 256 0 l 1
 192 0 l 1
 128 0 l 1
 64 0 l 1
 0 0 l 1
 0 64 l 1
 0 128 l 1
 64 128 l 1
 128 128 l 1
 192 128 l 1
 256 128 l 1
 320 128 l 1
 384 128 l 1
 384 192 l 1
 384 256 l 1
 384 320 l 1
 320 320 l 1
 256 320 l 1
 192 320 l 1
 128 320 l 1
 64 320 l 1
 0 320 l 1
 0 384 l 1
 0 448 l 1
 0 512 l 1
 0 576 l 1
 0 640 l 1
 0 704 l 1
 0 768 l 1
EndSplineSet
EndChar

StartChar: six
Encoding: 54 54 32
Width: 640
Flags: HW
LayerCount: 2
Fore
SplineSet
64 768 m 1
 128 768 l 1
 192 768 l 1
 256 768 l 1
 320 768 l 1
 384 768 l 1
 448 768 l 1
 448 704 l 1
 448 640 l 1
 384 640 l 1
 320 640 l 1
 256 640 l 1
 192 640 l 1
 128 640 l 1
 128 576 l 1
 128 512 l 1
 128 448 l 1
 192 448 l 1
 256 448 l 1
 320 448 l 1
 384 448 l 1
 448 448 l 1
 448 384 l 1
 512 384 l 1
 512 320 l 1
 512 256 l 1
 512 192 l 1
 512 128 l 1
 512 64 l 1
 448 64 l 1
 448 0 l 1
 384 0 l 1
 320 0 l 1
 256 0 l 1
 192 0 l 1
 128 0 l 1
 64 0 l 1
 64 64 l 1
 0 64 l 1
 0 128 l 1
 0 192 l 1
 0 256 l 1
 0 320 l 1
 0 384 l 1
 0 448 l 5
 0 512 l 5
 0 576 l 1
 0 640 l 1
 0 704 l 1
 64 704 l 1
 64 768 l 1
128 320 m 1
 128 256 l 1
 128 192 l 1
 128 128 l 1
 192 128 l 1
 256 128 l 1
 320 128 l 1
 384 128 l 1
 384 192 l 1
 384 256 l 1
 384 320 l 1
 320 320 l 1
 256 320 l 1
 192 320 l 1
 128 320 l 1
EndSplineSet
EndChar

StartChar: seven
Encoding: 55 55 33
Width: 640
Flags: HW
LayerCount: 2
Fore
SplineSet
0 768 m 1
 64 768 l 1
 128 768 l 1
 192 768 l 1
 256 768 l 1
 320 768 l 1
 384 768 l 1
 448 768 l 1
 512 768 l 1
 512 704 l 1
 512 640 l 1
 512 576 l 1
 512 512 l 1
 512 448 l 1
 448 448 l 1
 448 384 l 1
 448 320 l 1
 384 320 l 1
 384 256 l 1
 384 192 l 1
 320 192 l 1
 320 128 l 1
 320 64 l 1
 256 64 l 1
 256 0 l 1
 192 0 l 1
 128 0 l 1
 128 64 l 1
 128 128 l 1
 192 128 l 1
 192 192 l 1
 192 256 l 1
 256 256 l 1
 256 320 l 1
 256 384 l 1
 320 384 l 1
 320 448 l 1
 320 512 l 1
 384 512 l 1
 384 576 l 1
 384 640 l 1
 320 640 l 1
 256 640 l 1
 192 640 l 1
 128 640 l 1
 64 640 l 1
 0 640 l 1
 0 704 l 1
 0 768 l 1
EndSplineSet
EndChar

StartChar: eight
Encoding: 56 56 34
Width: 640
Flags: HW
LayerCount: 2
Fore
SplineSet
64 768 m 1
 128 768 l 1
 192 768 l 1
 256 768 l 1
 320 768 l 1
 384 768 l 1
 448 768 l 1
 448 704 l 1
 512 704 l 1
 512 640 l 1
 512 576 l 1
 512 512 l 1
 512 448 l 1
 448 448 l 1
 448 384 l 1
 448 320 l 1
 512 320 l 1
 512 256 l 1
 512 192 l 1
 512 128 l 1
 512 64 l 1
 448 64 l 1
 448 0 l 1
 384 0 l 1
 320 0 l 1
 256 0 l 1
 192 0 l 1
 128 0 l 1
 64 0 l 1
 64 64 l 1
 0 64 l 1
 0 128 l 1
 0 192 l 1
 0 256 l 1
 0 320 l 1
 64 320 l 1
 64 384 l 1
 64 448 l 1
 0 448 l 1
 0 512 l 1
 0 576 l 1
 0 640 l 1
 0 704 l 1
 64 704 l 1
 64 768 l 1
128 640 m 1
 128 576 l 1
 128 512 l 1
 128 448 l 1
 192 448 l 1
 256 448 l 1
 320 448 l 1
 384 448 l 1
 384 512 l 1
 384 576 l 1
 384 640 l 1
 320 640 l 1
 256 640 l 1
 192 640 l 1
 128 640 l 1
128 320 m 1
 128 256 l 1
 128 192 l 1
 128 128 l 1
 192 128 l 1
 256 128 l 1
 320 128 l 1
 384 128 l 1
 384 192 l 1
 384 256 l 1
 384 320 l 1
 320 320 l 1
 256 320 l 1
 192 320 l 1
 128 320 l 1
EndSplineSet
EndChar

StartChar: nine
Encoding: 57 57 35
Width: 640
Flags: HW
LayerCount: 2
Fore
SplineSet
64 768 m 1
 128 768 l 1
 192 768 l 1
 256 768 l 1
 320 768 l 1
 384 768 l 1
 448 768 l 1
 448 704 l 1
 512 704 l 1
 512 640 l 1
 512 576 l 1
 512 512 l 1
 512 448 l 1
 512 384 l 1
 512 320 l 1
 512 256 l 1
 512 192 l 1
 512 128 l 1
 512 64 l 1
 448 64 l 1
 448 0 l 1
 384 0 l 1
 320 0 l 1
 256 0 l 1
 192 0 l 1
 128 0 l 1
 64 0 l 1
 64 64 l 1
 64 128 l 1
 128 128 l 1
 192 128 l 1
 256 128 l 1
 320 128 l 1
 384 128 l 1
 384 192 l 1
 384 256 l 1
 384 320 l 1
 320 320 l 1
 256 320 l 1
 192 320 l 1
 128 320 l 1
 64 320 l 1
 64 384 l 1
 0 384 l 1
 0 448 l 1
 0 512 l 1
 0 576 l 1
 0 640 l 1
 0 704 l 1
 64 704 l 1
 64 768 l 1
128 640 m 1
 128 576 l 1
 128 512 l 1
 128 448 l 1
 192 448 l 1
 256 448 l 1
 320 448 l 1
 384 448 l 1
 384 512 l 1
 384 576 l 1
 384 640 l 1
 320 640 l 1
 256 640 l 1
 192 640 l 1
 128 640 l 1
EndSplineSet
EndChar

StartChar: underscore
Encoding: 95 95 36
Width: 640
Flags: HW
LayerCount: 2
Fore
SplineSet
0 128 m 1
 64 128 l 1
 128 128 l 1
 192 128 l 1
 256 128 l 1
 320 128 l 1
 384 128 l 1
 448 128 l 1
 512 128 l 1
 512 64 l 1
 512 0 l 1
 448 0 l 1
 384 0 l 1
 320 0 l 1
 256 0 l 1
 192 0 l 1
 128 0 l 1
 64 0 l 1
 0 0 l 1
 0 64 l 1
 0 128 l 1
EndSplineSet
EndChar

StartChar: bracketleft
Encoding: 91 91 38
Width: 384
Flags: HW
LayerCount: 2
Fore
SplineSet
0 768 m 1
 64 768 l 1
 128 768 l 1
 192 768 l 1
 256 768 l 1
 256 704 l 1
 256 640 l 1
 192 640 l 1
 128 640 l 1
 128 576 l 1
 128 512 l 1
 128 448 l 1
 128 384 l 1
 128 320 l 1
 128 256 l 1
 128 192 l 1
 128 128 l 1
 192 128 l 1
 256 128 l 1
 256 64 l 1
 256 0 l 1
 192 0 l 1
 128 0 l 1
 64 0 l 1
 0 0 l 1
 0 64 l 1
 0 128 l 1
 0 192 l 1
 0 256 l 1
 0 320 l 1
 0 384 l 1
 0 448 l 1
 0 512 l 1
 0 576 l 1
 0 640 l 1
 0 704 l 1
 0 768 l 1
EndSplineSet
EndChar

StartChar: bracketright
Encoding: 93 93 39
Width: 384
Flags: HW
LayerCount: 2
Fore
SplineSet
0 768 m 1
 64 768 l 1
 128 768 l 1
 192 768 l 1
 256 768 l 5
 256 704 l 1
 256 640 l 1
 256 576 l 1
 256 512 l 1
 256 448 l 1
 256 384 l 1
 256 320 l 1
 256 256 l 1
 256 192 l 1
 256 128 l 1
 256 64 l 1
 256 0 l 1
 192 0 l 1
 128 0 l 1
 64 0 l 1
 0 0 l 1
 0 64 l 1
 0 128 l 1
 64 128 l 1
 128 128 l 1
 128 192 l 1
 128 256 l 1
 128 320 l 1
 128 384 l 1
 128 448 l 1
 128 512 l 1
 128 576 l 1
 128 640 l 1
 64 640 l 1
 0 640 l 1
 0 704 l 1
 0 768 l 1
EndSplineSet
EndChar

StartChar: asciicircum
Encoding: 94 94 40
Width: 640
Flags: HW
LayerCount: 2
Fore
SplineSet
192 768 m 1
 256 768 l 1
 320 768 l 1
 320 704 l 1
 384 704 l 1
 384 640 l 1
 448 640 l 1
 448 576 l 1
 512 576 l 1
 512 512 l 1
 512 448 l 5
 448 448 l 1
 384 448 l 1
 384 512 l 1
 320 512 l 1
 320 576 l 1
 256 576 l 1
 192 576 l 1
 192 512 l 1
 128 512 l 1
 128 448 l 1
 64 448 l 1
 0 448 l 1
 0 512 l 1
 0 576 l 1
 64 576 l 1
 64 640 l 1
 128 640 l 1
 128 704 l 1
 192 704 l 1
 192 768 l 1
EndSplineSet
EndChar

StartChar: question
Encoding: 63 63 41
Width: 640
Flags: HW
LayerCount: 2
Fore
SplineSet
64 768 m 1
 128 768 l 1
 192 768 l 1
 256 768 l 1
 320 768 l 1
 384 768 l 1
 448 768 l 1
 448 704 l 1
 512 704 l 1
 512 640 l 1
 512 576 l 1
 512 512 l 1
 512 448 l 1
 512 384 l 1
 448 384 l 1
 448 320 l 1
 384 320 l 1
 384 256 l 1
 320 256 l 1
 320 192 l 1
 256 192 l 1
 192 192 l 1
 192 256 l 1
 192 320 l 1
 256 320 l 1
 256 384 l 1
 320 384 l 1
 320 448 l 1
 384 448 l 1
 384 512 l 1
 384 576 l 1
 384 640 l 1
 320 640 l 1
 256 640 l 1
 192 640 l 1
 128 640 l 1
 128 576 l 1
 64 576 l 1
 0 576 l 1
 0 640 l 1
 0 704 l 1
 64 704 l 1
 64 768 l 1
192 128 m 1
 256 128 l 1
 320 128 l 1
 320 64 l 1
 320 0 l 1
 256 0 l 1
 192 0 l 1
 192 64 l 1
 192 128 l 1
EndSplineSet
EndChar

StartChar: at
Encoding: 64 64 42
Width: 640
Flags: HW
LayerCount: 2
Fore
SplineSet
64 512 m 1
 128 512 l 1
 192 512 l 1
 256 512 l 1
 320 512 l 1
 384 512 l 1
 448 512 l 1
 448 448 l 1
 384 448 l 1
 320 448 l 1
 256 448 l 1
 192 448 l 1
 128 448 l 1
 64 448 l 1
 64 512 l 1
448 448 m 1
 512 448 l 1
 512 384 l 1
 512 320 l 1
 512 256 l 1
 512 192 l 1
 448 192 l 1
 448 256 l 1
 448 320 l 1
 448 384 l 1
 448 448 l 1
448 192 m 1
 448 128 l 1
 384 128 l 1
 320 128 l 1
 256 128 l 1
 192 128 l 1
 192 192 l 1
 256 192 l 1
 320 192 l 1
 320 256 l 1
 320 320 l 1
 256 320 l 1
 192 320 l 1
 192 384 l 1
 256 384 l 1
 320 384 l 1
 384 384 l 1
 384 320 l 1
 384 256 l 1
 384 192 l 1
 448 192 l 1
192 192 m 1
 128 192 l 1
 128 256 l 1
 128 320 l 1
 192 320 l 1
 192 256 l 1
 192 192 l 1
64 448 m 1
 64 384 l 1
 64 320 l 1
 64 256 l 1
 64 192 l 1
 64 128 l 1
 64 64 l 1
 0 64 l 1
 0 128 l 1
 0 192 l 1
 0 256 l 1
 0 320 l 1
 0 384 l 1
 0 448 l 1
 64 448 l 1
64 64 m 1
 128 64 l 1
 192 64 l 1
 256 64 l 1
 320 64 l 1
 384 64 l 1
 448 64 l 1
 512 64 l 1
 512 0 l 1
 448 0 l 1
 384 0 l 1
 320 0 l 1
 256 0 l 1
 192 0 l 1
 128 0 l 1
 64 0 l 1
 64 64 l 1
EndSplineSet
EndChar

StartChar: colon
Encoding: 58 58 43
Width: 256
Flags: HW
LayerCount: 2
Fore
SplineSet
0 640 m 5
 64 640 l 5
 128 640 l 5
 128 576 l 5
 128 512 l 5
 64 512 l 5
 0 512 l 5
 0 576 l 5
 0 640 l 5
0 256 m 5
 64 256 l 5
 128 256 l 5
 128 192 l 5
 128 128 l 5
 64 128 l 5
 0 128 l 5
 0 192 l 5
 0 256 l 5
EndSplineSet
EndChar

StartChar: semicolon
Encoding: 59 59 44
Width: 256
Flags: HW
LayerCount: 2
Fore
SplineSet
0 640 m 1
 64 640 l 1
 128 640 l 1
 128 576 l 1
 128 512 l 1
 64 512 l 1
 0 512 l 1
 0 576 l 1
 0 640 l 1
0 256 m 1
 64 256 l 1
 128 256 l 1
 128 192 l 1
 128 128 l 1
 128 64 l 1
 128 0 l 1
 64 0 l 1
 0 0 l 1
 0 64 l 1
 0 128 l 1
 0 192 l 1
 0 256 l 1
EndSplineSet
EndChar

StartChar: less
Encoding: 60 60 45
Width: 640
Flags: HW
LayerCount: 2
Fore
SplineSet
320 768 m 1
 384 768 l 1
 448 768 l 1
 512 768 l 1
 512 704 l 1
 448 704 l 1
 448 640 l 1
 384 640 l 1
 384 576 l 1
 320 576 l 1
 320 512 l 1
 256 512 l 1
 256 448 l 1
 192 448 l 1
 192 384 l 1
 192 320 l 1
 256 320 l 1
 256 256 l 1
 320 256 l 1
 320 192 l 1
 384 192 l 1
 384 128 l 1
 448 128 l 1
 448 64 l 1
 512 64 l 1
 512 0 l 1
 448 0 l 1
 384 0 l 1
 320 0 l 1
 320 64 l 1
 256 64 l 1
 256 128 l 1
 192 128 l 1
 192 192 l 1
 128 192 l 1
 128 256 l 1
 64 256 l 1
 64 320 l 1
 0 320 l 1
 0 384 l 1
 0 448 l 1
 64 448 l 1
 64 512 l 1
 128 512 l 1
 128 576 l 1
 192 576 l 1
 192 640 l 1
 256 640 l 1
 256 704 l 1
 320 704 l 1
 320 768 l 1
EndSplineSet
EndChar

StartChar: equal
Encoding: 61 61 46
Width: 640
Flags: HW
LayerCount: 2
Fore
SplineSet
0 576 m 1
 64 576 l 1
 128 576 l 1
 192 576 l 1
 256 576 l 1
 320 576 l 1
 384 576 l 1
 448 576 l 1
 512 576 l 1
 512 512 l 1
 512 448 l 1
 448 448 l 1
 384 448 l 1
 320 448 l 1
 256 448 l 1
 192 448 l 1
 128 448 l 1
 64 448 l 1
 0 448 l 1
 0 512 l 1
 0 576 l 1
0 320 m 1
 64 320 l 1
 128 320 l 1
 192 320 l 1
 256 320 l 1
 320 320 l 1
 384 320 l 1
 448 320 l 1
 512 320 l 1
 512 256 l 1
 512 192 l 1
 448 192 l 1
 384 192 l 1
 320 192 l 1
 256 192 l 1
 192 192 l 1
 128 192 l 1
 64 192 l 1
 0 192 l 1
 0 256 l 1
 0 320 l 1
EndSplineSet
EndChar

StartChar: greater
Encoding: 62 62 47
Width: 640
Flags: HW
LayerCount: 2
Fore
SplineSet
0 768 m 1
 64 768 l 1
 128 768 l 1
 192 768 l 1
 192 704 l 1
 256 704 l 1
 256 640 l 1
 320 640 l 1
 320 576 l 1
 384 576 l 1
 384 512 l 1
 448 512 l 1
 448 448 l 1
 512 448 l 1
 512 384 l 1
 512 320 l 1
 448 320 l 1
 448 256 l 1
 384 256 l 1
 384 192 l 1
 320 192 l 1
 320 128 l 1
 256 128 l 1
 256 64 l 1
 192 64 l 1
 192 0 l 1
 128 0 l 1
 64 0 l 1
 0 0 l 1
 0 64 l 1
 64 64 l 1
 64 128 l 1
 128 128 l 1
 128 192 l 1
 192 192 l 1
 192 256 l 1
 256 256 l 1
 256 320 l 1
 320 320 l 1
 320 384 l 1
 320 448 l 1
 256 448 l 1
 256 512 l 1
 192 512 l 1
 192 576 l 1
 128 576 l 1
 128 640 l 1
 64 640 l 1
 64 704 l 1
 0 704 l 1
 0 768 l 1
EndSplineSet
EndChar

StartChar: hyphen
Encoding: 45 45 48
Width: 640
Flags: HW
LayerCount: 2
Fore
SplineSet
0 448 m 1
 64 448 l 1
 128 448 l 1
 192 448 l 1
 256 448 l 1
 320 448 l 1
 384 448 l 1
 448 448 l 1
 512 448 l 1
 512 384 l 1
 512 320 l 1
 448 320 l 1
 384 320 l 1
 320 320 l 1
 256 320 l 1
 192 320 l 1
 128 320 l 1
 64 320 l 1
 0 320 l 1
 0 384 l 1
 0 448 l 1
EndSplineSet
EndChar

StartChar: period
Encoding: 46 46 49
Width: 256
Flags: HW
LayerCount: 2
Fore
SplineSet
0 128 m 1
 64 128 l 1
 128 128 l 1
 128 64 l 1
 128 0 l 1
 64 0 l 1
 0 0 l 1
 0 64 l 1
 0 128 l 1
EndSplineSet
EndChar

StartChar: plus
Encoding: 43 43 50
Width: 640
Flags: HW
LayerCount: 2
Fore
SplineSet
192 640 m 1
 256 640 l 1
 320 640 l 1
 320 576 l 1
 320 512 l 1
 320 448 l 1
 384 448 l 1
 448 448 l 1
 512 448 l 1
 512 384 l 1
 512 320 l 1
 448 320 l 1
 384 320 l 1
 320 320 l 1
 320 256 l 1
 320 192 l 1
 320 128 l 1
 256 128 l 1
 192 128 l 1
 192 192 l 1
 192 256 l 1
 192 320 l 1
 128 320 l 1
 64 320 l 1
 0 320 l 1
 0 384 l 1
 0 448 l 1
 64 448 l 1
 128 448 l 1
 192 448 l 1
 192 512 l 1
 192 576 l 1
 192 640 l 1
EndSplineSet
EndChar

StartChar: parenright
Encoding: 41 41 51
Width: 384
Flags: HW
LayerCount: 2
Fore
SplineSet
0 768 m 1
 64 768 l 1
 128 768 l 1
 128 704 l 1
 192 704 l 1
 192 640 l 1
 256 640 l 5
 256 576 l 1
 256 512 l 1
 256 448 l 1
 256 384 l 1
 256 320 l 1
 256 256 l 1
 256 192 l 1
 256 128 l 1
 192 128 l 1
 192 64 l 1
 128 64 l 1
 128 0 l 1
 64 0 l 1
 0 0 l 1
 0 64 l 1
 0 128 l 1
 64 128 l 1
 64 192 l 1
 128 192 l 1
 128 256 l 1
 128 320 l 1
 128 384 l 1
 128 448 l 1
 128 512 l 1
 128 576 l 1
 64 576 l 1
 64 640 l 1
 0 640 l 1
 0 704 l 1
 0 768 l 1
EndSplineSet
EndChar

StartChar: parenleft
Encoding: 40 40 52
Width: 384
Flags: HW
LayerCount: 2
Fore
SplineSet
128 768 m 1
 192 768 l 1
 256 768 l 5
 256 704 l 1
 256 640 l 1
 192 640 l 1
 192 576 l 1
 128 576 l 1
 128 512 l 1
 128 448 l 1
 128 384 l 1
 128 320 l 1
 128 256 l 1
 128 192 l 1
 192 192 l 1
 192 128 l 1
 256 128 l 1
 256 64 l 1
 256 0 l 1
 192 0 l 1
 128 0 l 1
 128 64 l 1
 64 64 l 1
 64 128 l 1
 0 128 l 1
 0 192 l 1
 0 256 l 1
 0 320 l 1
 0 384 l 1
 0 448 l 1
 0 512 l 1
 0 576 l 1
 0 640 l 1
 64 640 l 1
 64 704 l 1
 128 704 l 1
 128 768 l 1
EndSplineSet
EndChar

StartChar: quotesingle
Encoding: 39 39 53
Width: 256
Flags: HW
LayerCount: 2
Fore
SplineSet
0 768 m 1
 64 768 l 1
 128 768 l 5
 128 704 l 1
 128 640 l 1
 128 576 l 1
 128 512 l 1
 64 512 l 1
 0 512 l 1
 0 576 l 1
 0 640 l 1
 0 704 l 1
 0 768 l 1
EndSplineSet
EndChar

StartChar: asciitilde
Encoding: 126 126 54
Width: 640
Flags: HW
LayerCount: 2
Fore
SplineSet
64 512 m 1
 128 512 l 1
 192 512 l 1
 192 448 l 1
 256 448 l 1
 320 448 l 1
 320 384 l 1
 384 384 l 1
 448 384 l 1
 448 448 l 1
 512 448 l 1
 512 384 l 1
 512 320 l 1
 448 320 l 1
 448 256 l 1
 384 256 l 1
 320 256 l 1
 256 256 l 1
 256 320 l 1
 192 320 l 1
 192 384 l 1
 128 384 l 1
 64 384 l 1
 64 320 l 1
 0 320 l 1
 0 384 l 1
 0 448 l 1
 64 448 l 1
 64 512 l 1
EndSplineSet
EndChar

StartChar: bar
Encoding: 124 124 55
Width: 256
Flags: HW
LayerCount: 2
Fore
SplineSet
0 768 m 1
 64 768 l 1
 128 768 l 1
 128 704 l 1
 128 640 l 1
 128 576 l 1
 128 512 l 1
 128 448 l 1
 128 384 l 1
 128 320 l 1
 128 256 l 1
 128 192 l 1
 128 128 l 1
 128 64 l 1
 128 0 l 1
 64 0 l 1
 0 0 l 1
 0 64 l 1
 0 128 l 1
 0 192 l 1
 0 256 l 1
 0 320 l 1
 0 384 l 1
 0 448 l 1
 0 512 l 1
 0 576 l 1
 0 640 l 1
 0 704 l 1
 0 768 l 1
EndSplineSet
EndChar

StartChar: registered
Encoding: 174 174 56
Width: 640
Flags: HW
LayerCount: 2
Fore
SplineSet
0 640 m 1
 64 640 l 1
 128 640 l 1
 192 640 l 1
 256 640 l 1
 320 640 l 1
 384 640 l 1
 448 640 l 1
 512 640 l 1
 512 576 l 1
 512 512 l 1
 512 448 l 1
 512 384 l 1
 512 320 l 1
 512 256 l 1
 512 192 l 1
 512 128 l 1
 448 128 l 1
 384 128 l 1
 320 128 l 1
 256 128 l 1
 192 128 l 1
 128 128 l 1
 64 128 l 1
 0 128 l 1
 0 192 l 1
 0 256 l 1
 0 320 l 1
 0 384 l 1
 0 448 l 1
 0 512 l 1
 0 576 l 1
 0 640 l 1
64 576 m 1
 64 512 l 1
 64 448 l 1
 64 384 l 1
 64 320 l 1
 64 256 l 1
 64 192 l 1
 128 192 l 1
 192 192 l 1
 256 192 l 1
 320 192 l 1
 384 192 l 1
 448 192 l 1
 448 256 l 1
 448 320 l 1
 448 384 l 1
 448 448 l 1
 448 512 l 1
 448 576 l 1
 384 576 l 1
 320 576 l 1
 256 576 l 1
 192 576 l 1
 128 576 l 1
 64 576 l 1
128 512 m 1
 192 512 l 1
 256 512 l 1
 320 512 l 1
 320 448 l 1
 320 384 l 1
 256 384 l 1
 256 448 l 1
 192 448 l 1
 192 384 l 1
 256 384 l 1
 256 320 l 1
 192 320 l 1
 192 256 l 1
 128 256 l 1
 128 320 l 1
 128 384 l 1
 128 448 l 1
 128 512 l 1
256 320 m 1
 320 320 l 1
 320 256 l 1
 256 256 l 1
 256 320 l 1
EndSplineSet
EndChar

StartChar: copyright
Encoding: 169 169 57
Width: 640
Flags: HW
LayerCount: 2
Fore
SplineSet
0 640 m 1
 64 640 l 1
 128 640 l 1
 192 640 l 1
 256 640 l 1
 320 640 l 1
 384 640 l 1
 448 640 l 1
 512 640 l 1
 512 576 l 1
 512 512 l 1
 512 448 l 1
 512 384 l 1
 512 320 l 1
 512 256 l 1
 512 192 l 1
 512 128 l 1
 448 128 l 1
 384 128 l 1
 320 128 l 1
 256 128 l 1
 192 128 l 1
 128 128 l 1
 64 128 l 1
 0 128 l 1
 0 192 l 1
 0 256 l 1
 0 320 l 1
 0 384 l 1
 0 448 l 1
 0 512 l 1
 0 576 l 1
 0 640 l 1
64 576 m 1
 64 512 l 1
 64 448 l 1
 64 384 l 1
 64 320 l 1
 64 256 l 1
 64 192 l 1
 128 192 l 1
 192 192 l 1
 256 192 l 1
 320 192 l 1
 384 192 l 1
 448 192 l 1
 448 256 l 1
 448 320 l 1
 448 384 l 1
 448 448 l 1
 448 512 l 1
 448 576 l 1
 384 576 l 1
 320 576 l 1
 256 576 l 1
 192 576 l 1
 128 576 l 1
 64 576 l 1
128 512 m 1
 192 512 l 1
 256 512 l 1
 320 512 l 1
 384 512 l 1
 384 448 l 1
 320 448 l 1
 256 448 l 1
 192 448 l 1
 192 384 l 1
 192 320 l 1
 256 320 l 1
 320 320 l 1
 384 320 l 1
 384 256 l 1
 320 256 l 1
 256 256 l 1
 192 256 l 1
 128 256 l 1
 128 320 l 1
 128 384 l 1
 128 448 l 1
 128 512 l 1
EndSplineSet
EndChar

StartChar: mu
Encoding: 181 181 58
Width: 640
Flags: HW
LayerCount: 2
Fore
SplineSet
0 640 m 1
 64 640 l 1
 128 640 l 1
 128 576 l 1
 128 512 l 1
 128 448 l 1
 128 384 l 1
 128 320 l 1
 128 256 l 1
 192 256 l 1
 256 256 l 1
 320 256 l 1
 384 256 l 1
 384 320 l 1
 384 384 l 1
 384 448 l 1
 384 512 l 1
 384 576 l 1
 384 640 l 1
 448 640 l 1
 512 640 l 1
 512 576 l 1
 512 512 l 1
 512 448 l 1
 512 384 l 1
 512 320 l 1
 512 256 l 1
 512 192 l 1
 448 192 l 1
 448 128 l 1
 384 128 l 1
 320 128 l 1
 256 128 l 1
 192 128 l 1
 128 128 l 1
 128 64 l 1
 128 0 l 1
 64 0 l 1
 0 0 l 1
 0 64 l 1
 0 128 l 1
 0 192 l 1
 0 256 l 1
 0 320 l 1
 0 384 l 1
 0 448 l 1
 0 512 l 1
 0 576 l 1
 0 640 l 1
EndSplineSet
EndChar

StartChar: exclam
Encoding: 33 33 59
Width: 256
Flags: HW
LayerCount: 2
Fore
SplineSet
0 768 m 1
 64 768 l 1
 128 768 l 1
 128 704 l 1
 128 640 l 1
 128 576 l 1
 128 512 l 1
 128 448 l 1
 128 384 l 1
 128 320 l 1
 128 256 l 1
 128 192 l 1
 64 192 l 1
 0 192 l 1
 0 256 l 1
 0 320 l 1
 0 384 l 1
 0 448 l 1
 0 512 l 1
 0 576 l 1
 0 640 l 1
 0 704 l 1
 0 768 l 1
0 128 m 1
 64 128 l 1
 128 128 l 1
 128 64 l 1
 128 0 l 1
 64 0 l 1
 0 0 l 1
 0 64 l 1
 0 128 l 1
EndSplineSet
EndChar

StartChar: quotedbl
Encoding: 34 34 60
Width: 512
Flags: HW
LayerCount: 2
Fore
SplineSet
0 768 m 1
 64 768 l 1
 128 768 l 1
 128 704 l 1
 128 640 l 1
 128 576 l 1
 128 512 l 1
 64 512 l 1
 0 512 l 1
 0 576 l 1
 0 640 l 1
 0 704 l 1
 0 768 l 1
256 768 m 1
 320 768 l 1
 384 768 l 5
 384 704 l 1
 384 640 l 1
 384 576 l 1
 384 512 l 1
 320 512 l 1
 256 512 l 1
 256 576 l 1
 256 640 l 1
 256 704 l 1
 256 768 l 1
EndSplineSet
EndChar

StartChar: numbersign
Encoding: 35 35 61
Width: 640
Flags: HW
LayerCount: 2
Fore
SplineSet
64 768 m 1
 128 768 l 1
 192 768 l 1
 192 704 l 1
 192 640 l 1
 192 576 l 1
 256 576 l 1
 320 576 l 1
 320 640 l 1
 320 704 l 1
 320 768 l 1
 384 768 l 1
 448 768 l 1
 448 704 l 1
 448 640 l 1
 448 576 l 1
 512 576 l 1
 512 512 l 1
 512 448 l 1
 448 448 l 1
 448 384 l 1
 448 320 l 1
 512 320 l 1
 512 256 l 1
 512 192 l 1
 448 192 l 1
 448 128 l 1
 448 64 l 1
 448 0 l 1
 384 0 l 1
 320 0 l 1
 320 64 l 1
 320 128 l 1
 320 192 l 1
 256 192 l 1
 192 192 l 1
 192 128 l 1
 192 64 l 1
 192 0 l 1
 128 0 l 1
 64 0 l 1
 64 64 l 1
 64 128 l 1
 64 192 l 1
 0 192 l 1
 0 256 l 1
 0 320 l 1
 64 320 l 1
 64 384 l 1
 64 448 l 1
 0 448 l 1
 0 512 l 1
 0 576 l 1
 64 576 l 1
 64 640 l 1
 64 704 l 1
 64 768 l 1
192 448 m 1
 192 384 l 1
 192 320 l 1
 256 320 l 1
 320 320 l 1
 320 384 l 1
 320 448 l 1
 256 448 l 1
 192 448 l 1
EndSplineSet
EndChar

StartChar: percent
Encoding: 37 37 62
Width: 640
Flags: HW
LayerCount: 2
Fore
SplineSet
0 768 m 1
 64 768 l 1
 128 768 l 1
 192 768 l 1
 192 704 l 1
 192 640 l 1
 192 576 l 1
 128 576 l 1
 64 576 l 1
 0 576 l 1
 0 640 l 1
 0 704 l 1
 0 768 l 1
384 768 m 1
 448 768 l 1
 512 768 l 1
 512 704 l 1
 512 640 l 1
 512 576 l 1
 448 576 l 1
 448 512 l 1
 384 512 l 1
 384 448 l 1
 384 384 l 1
 320 384 l 1
 320 320 l 1
 256 320 l 1
 256 256 l 1
 256 192 l 1
 192 192 l 1
 192 128 l 1
 128 128 l 1
 128 64 l 1
 128 0 l 1
 64 0 l 1
 0 0 l 1
 0 64 l 1
 0 128 l 1
 0 192 l 1
 64 192 l 1
 64 256 l 1
 128 256 l 1
 128 320 l 1
 128 384 l 1
 192 384 l 1
 192 448 l 1
 256 448 l 1
 256 512 l 1
 256 576 l 1
 320 576 l 1
 320 640 l 1
 384 640 l 1
 384 704 l 1
 384 768 l 1
64 704 m 1
 64 640 l 1
 128 640 l 1
 128 704 l 1
 64 704 l 1
320 192 m 1
 384 192 l 1
 448 192 l 1
 512 192 l 1
 512 128 l 1
 512 64 l 1
 512 0 l 1
 448 0 l 1
 384 0 l 1
 320 0 l 1
 320 64 l 1
 320 128 l 1
 320 192 l 1
384 128 m 1
 384 64 l 1
 448 64 l 1
 448 128 l 1
 384 128 l 1
EndSplineSet
EndChar

StartChar: dollar
Encoding: 36 36 63
Width: 640
Flags: HW
LayerCount: 2
Fore
SplineSet
192 768 m 1
 256 768 l 1
 320 768 l 1
 320 704 l 1
 384 704 l 1
 448 704 l 1
 448 640 l 1
 512 640 l 1
 512 576 l 1
 448 576 l 1
 384 576 l 1
 320 576 l 1
 320 512 l 1
 320 448 l 1
 384 448 l 1
 448 448 l 1
 448 384 l 1
 512 384 l 1
 512 320 l 1
 512 256 l 1
 512 192 l 1
 512 128 l 1
 448 128 l 1
 448 64 l 1
 384 64 l 1
 320 64 l 1
 320 0 l 1
 256 0 l 1
 192 0 l 1
 192 64 l 1
 128 64 l 1
 64 64 l 1
 64 128 l 1
 0 128 l 1
 0 192 l 1
 64 192 l 1
 128 192 l 1
 192 192 l 1
 192 256 l 1
 192 320 l 1
 128 320 l 1
 64 320 l 1
 64 384 l 1
 0 384 l 1
 0 448 l 1
 0 512 l 1
 0 576 l 1
 0 640 l 1
 64 640 l 1
 64 704 l 1
 128 704 l 1
 192 704 l 1
 192 768 l 1
128 576 m 1
 128 512 l 1
 128 448 l 1
 192 448 l 1
 192 512 l 1
 192 576 l 1
 128 576 l 1
320 320 m 1
 320 256 l 1
 320 192 l 1
 384 192 l 1
 384 256 l 1
 384 320 l 1
 320 320 l 1
EndSplineSet
EndChar

StartChar: comma
Encoding: 44 44 64
Width: 256
Flags: HW
LayerCount: 2
Fore
SplineSet
0 128 m 1
 64 128 l 1
 128 128 l 1
 128 64 l 1
 128 0 l 1
 128 -64 l 1
 128 -128 l 1
 64 -128 l 1
 0 -128 l 1
 0 -64 l 1
 0 0 l 1
 0 64 l 1
 0 128 l 1
EndSplineSet
EndChar

StartChar: a
Encoding: 97 97 65
Width: 640
Flags: HW
LayerCount: 2
Fore
SplineSet
64 512 m 1
 128 512 l 1
 192 512 l 1
 256 512 l 1
 320 512 l 1
 384 512 l 1
 448 512 l 1
 448 448 l 1
 512 448 l 1
 512 384 l 1
 512 320 l 1
 512 256 l 1
 512 192 l 1
 512 128 l 1
 512 64 l 1
 448 64 l 1
 448 0 l 1
 384 0 l 1
 320 0 l 1
 256 0 l 1
 192 0 l 1
 128 0 l 1
 64 0 l 1
 64 64 l 1
 0 64 l 1
 0 128 l 1
 0 192 l 1
 0 256 l 1
 64 256 l 1
 64 320 l 1
 128 320 l 1
 192 320 l 1
 256 320 l 1
 320 320 l 1
 384 320 l 1
 384 384 l 1
 320 384 l 1
 256 384 l 1
 192 384 l 1
 128 384 l 1
 64 384 l 1
 0 384 l 1
 0 448 l 1
 64 448 l 1
 64 512 l 1
128 192 m 1
 128 128 l 1
 192 128 l 1
 256 128 l 1
 320 128 l 1
 384 128 l 1
 384 192 l 1
 320 192 l 1
 256 192 l 1
 192 192 l 1
 128 192 l 1
EndSplineSet
EndChar

StartChar: b
Encoding: 98 98 66
Width: 640
Flags: HW
LayerCount: 2
Fore
SplineSet
0 768 m 1
 64 768 l 1
 128 768 l 1
 128 704 l 1
 128 640 l 1
 128 576 l 1
 128 512 l 1
 192 512 l 1
 256 512 l 1
 320 512 l 1
 384 512 l 1
 448 512 l 1
 448 448 l 1
 512 448 l 1
 512 384 l 1
 512 320 l 1
 512 256 l 1
 512 192 l 1
 512 128 l 1
 512 64 l 1
 448 64 l 1
 448 0 l 1
 384 0 l 1
 320 0 l 1
 256 0 l 1
 192 0 l 1
 128 0 l 1
 64 0 l 1
 0 0 l 1
 0 64 l 1
 0 128 l 1
 0 192 l 1
 0 256 l 1
 0 320 l 1
 0 384 l 1
 0 448 l 1
 0 512 l 1
 0 576 l 5
 0 640 l 1
 0 704 l 1
 0 768 l 1
128 384 m 1
 128 320 l 1
 128 256 l 1
 128 192 l 1
 128 128 l 1
 192 128 l 1
 256 128 l 1
 320 128 l 1
 384 128 l 1
 384 192 l 1
 384 256 l 1
 384 320 l 1
 384 384 l 1
 320 384 l 1
 256 384 l 1
 192 384 l 1
 128 384 l 1
EndSplineSet
EndChar

StartChar: c
Encoding: 99 99 67
Width: 640
Flags: HW
LayerCount: 2
Fore
SplineSet
64 512 m 1
 128 512 l 1
 192 512 l 1
 256 512 l 1
 320 512 l 1
 384 512 l 1
 448 512 l 1
 512 512 l 1
 512 448 l 1
 512 384 l 1
 448 384 l 1
 384 384 l 1
 320 384 l 1
 256 384 l 1
 192 384 l 1
 128 384 l 1
 128 320 l 1
 128 256 l 1
 128 192 l 1
 128 128 l 1
 192 128 l 1
 256 128 l 1
 320 128 l 1
 384 128 l 1
 448 128 l 1
 512 128 l 1
 512 64 l 1
 512 0 l 1
 448 0 l 1
 384 0 l 1
 320 0 l 1
 256 0 l 1
 192 0 l 1
 128 0 l 1
 64 0 l 1
 64 64 l 1
 0 64 l 1
 0 128 l 1
 0 192 l 1
 0 256 l 1
 0 320 l 1
 0 384 l 1
 0 448 l 1
 64 448 l 1
 64 512 l 1
EndSplineSet
EndChar

StartChar: d
Encoding: 100 100 68
Width: 640
Flags: HW
LayerCount: 2
Fore
SplineSet
384 768 m 1
 448 768 l 1
 512 768 l 1
 512 704 l 1
 512 640 l 1
 512 576 l 1
 512 512 l 1
 512 448 l 1
 512 384 l 1
 512 320 l 1
 512 256 l 1
 512 192 l 1
 512 128 l 1
 512 64 l 1
 512 0 l 1
 448 0 l 1
 384 0 l 1
 320 0 l 1
 256 0 l 1
 192 0 l 1
 128 0 l 1
 64 0 l 1
 64 64 l 1
 0 64 l 1
 0 128 l 1
 0 192 l 1
 0 256 l 1
 0 320 l 1
 0 384 l 1
 0 448 l 1
 64 448 l 1
 64 512 l 1
 128 512 l 1
 192 512 l 1
 256 512 l 1
 320 512 l 1
 384 512 l 1
 384 576 l 1
 384 640 l 1
 384 704 l 1
 384 768 l 1
128 384 m 1
 128 320 l 1
 128 256 l 1
 128 192 l 1
 128 128 l 1
 192 128 l 1
 256 128 l 1
 320 128 l 1
 384 128 l 1
 384 192 l 1
 384 256 l 1
 384 320 l 1
 384 384 l 1
 320 384 l 1
 256 384 l 1
 192 384 l 1
 128 384 l 1
EndSplineSet
EndChar

StartChar: e
Encoding: 101 101 69
Width: 640
Flags: HW
LayerCount: 2
Fore
SplineSet
64 512 m 1
 128 512 l 1
 192 512 l 1
 256 512 l 1
 320 512 l 1
 384 512 l 1
 448 512 l 1
 448 448 l 1
 512 448 l 1
 512 384 l 1
 512 320 l 1
 512 256 l 1
 448 256 l 1
 448 192 l 1
 384 192 l 1
 320 192 l 1
 256 192 l 1
 192 192 l 1
 128 192 l 1
 128 128 l 1
 192 128 l 1
 256 128 l 1
 320 128 l 1
 384 128 l 1
 448 128 l 1
 512 128 l 1
 512 64 l 1
 448 64 l 1
 448 0 l 1
 384 0 l 1
 320 0 l 1
 256 0 l 1
 192 0 l 1
 128 0 l 1
 64 0 l 1
 64 64 l 1
 0 64 l 1
 0 128 l 1
 0 192 l 1
 0 256 l 1
 0 320 l 1
 0 384 l 1
 0 448 l 1
 64 448 l 1
 64 512 l 1
128 384 m 1
 128 320 l 1
 192 320 l 1
 256 320 l 1
 320 320 l 1
 384 320 l 1
 384 384 l 1
 320 384 l 1
 256 384 l 1
 192 384 l 1
 128 384 l 1
EndSplineSet
EndChar

StartChar: f
Encoding: 102 102 70
Width: 512
Flags: HW
LayerCount: 2
Fore
SplineSet
192 768 m 1
 256 768 l 1
 320 768 l 1
 384 768 l 5
 384 704 l 1
 384 640 l 1
 320 640 l 1
 256 640 l 1
 256 576 l 1
 256 512 l 1
 320 512 l 1
 384 512 l 1
 384 448 l 1
 384 384 l 1
 320 384 l 1
 256 384 l 1
 256 320 l 1
 256 256 l 1
 256 192 l 1
 256 128 l 1
 256 64 l 1
 256 0 l 1
 192 0 l 1
 128 0 l 1
 128 64 l 1
 128 128 l 1
 128 192 l 1
 128 256 l 1
 128 320 l 1
 128 384 l 1
 64 384 l 1
 0 384 l 1
 0 448 l 1
 0 512 l 1
 64 512 l 1
 128 512 l 1
 128 576 l 1
 128 640 l 1
 128 704 l 1
 192 704 l 1
 192 768 l 1
EndSplineSet
EndChar

StartChar: g
Encoding: 103 103 71
Width: 640
Flags: HW
LayerCount: 2
Fore
SplineSet
64 512 m 1
 128 512 l 1
 192 512 l 1
 256 512 l 1
 320 512 l 1
 384 512 l 1
 448 512 l 1
 448 448 l 1
 512 448 l 1
 512 384 l 1
 512 320 l 1
 512 256 l 1
 512 192 l 1
 512 128 l 1
 512 64 l 1
 512 0 l 1
 512 -64 l 1
 512 -128 l 1
 512 -192 l 1
 448 -192 l 1
 448 -256 l 1
 384 -256 l 1
 320 -256 l 1
 256 -256 l 1
 192 -256 l 1
 128 -256 l 1
 64 -256 l 1
 64 -192 l 1
 0 -192 l 1
 0 -128 l 1
 64 -128 l 1
 128 -128 l 1
 192 -128 l 1
 256 -128 l 1
 320 -128 l 1
 384 -128 l 1
 384 -64 l 1
 384 0 l 1
 320 0 l 1
 256 0 l 1
 192 0 l 1
 128 0 l 1
 64 0 l 1
 64 64 l 1
 0 64 l 1
 0 128 l 1
 0 192 l 1
 0 256 l 1
 0 320 l 1
 0 384 l 1
 0 448 l 1
 64 448 l 1
 64 512 l 1
128 384 m 1
 128 320 l 1
 128 256 l 1
 128 192 l 1
 128 128 l 1
 192 128 l 1
 256 128 l 1
 320 128 l 1
 384 128 l 1
 384 192 l 1
 384 256 l 1
 384 320 l 1
 384 384 l 1
 320 384 l 1
 256 384 l 1
 192 384 l 1
 128 384 l 1
EndSplineSet
EndChar

StartChar: h
Encoding: 104 104 72
Width: 640
Flags: HW
LayerCount: 2
Fore
SplineSet
0 768 m 1
 64 768 l 1
 128 768 l 1
 128 704 l 1
 128 640 l 1
 128 576 l 1
 128 512 l 1
 128 448 l 1
 192 448 l 1
 192 512 l 1
 256 512 l 1
 320 512 l 1
 384 512 l 1
 384 448 l 1
 448 448 l 1
 448 384 l 1
 512 384 l 1
 512 320 l 1
 512 256 l 1
 512 192 l 1
 512 128 l 1
 512 64 l 1
 512 0 l 1
 448 0 l 1
 384 0 l 1
 384 64 l 1
 384 128 l 1
 384 192 l 1
 384 256 l 1
 384 320 l 1
 320 320 l 1
 320 384 l 1
 256 384 l 1
 192 384 l 1
 192 320 l 1
 128 320 l 1
 128 256 l 1
 128 192 l 1
 128 128 l 1
 128 64 l 1
 128 0 l 1
 64 0 l 1
 0 0 l 1
 0 64 l 1
 0 128 l 1
 0 192 l 1
 0 256 l 1
 0 320 l 1
 0 384 l 1
 0 448 l 1
 0 512 l 1
 0 576 l 1
 0 640 l 1
 0 704 l 1
 0 768 l 1
EndSplineSet
EndChar

StartChar: i
Encoding: 105 105 73
Width: 256
Flags: HW
LayerCount: 2
Fore
SplineSet
0 704 m 1
 64 704 l 1
 128 704 l 1
 128 640 l 1
 128 576 l 1
 64 576 l 1
 0 576 l 1
 0 640 l 1
 0 704 l 1
0 512 m 1
 64 512 l 1
 128 512 l 1
 128 448 l 1
 128 384 l 1
 128 320 l 1
 128 256 l 1
 128 192 l 1
 128 128 l 1
 128 64 l 1
 128 0 l 1
 64 0 l 1
 0 0 l 1
 0 64 l 1
 0 128 l 1
 0 192 l 1
 0 256 l 1
 0 320 l 1
 0 384 l 1
 0 448 l 1
 0 512 l 1
EndSplineSet
EndChar

StartChar: j
Encoding: 106 106 74
Width: 512
Flags: HW
LayerCount: 2
Fore
SplineSet
256 704 m 1
 320 704 l 1
 384 704 l 5
 384 640 l 1
 384 576 l 1
 320 576 l 1
 256 576 l 1
 256 640 l 1
 256 704 l 1
256 512 m 1
 320 512 l 1
 384 512 l 1
 384 448 l 1
 384 384 l 1
 384 320 l 1
 384 256 l 1
 384 192 l 1
 384 128 l 1
 384 64 l 1
 320 64 l 1
 320 0 l 1
 256 0 l 1
 192 0 l 1
 128 0 l 1
 64 0 l 1
 64 64 l 1
 0 64 l 1
 0 128 l 1
 0 192 l 1
 64 192 l 1
 128 192 l 1
 128 128 l 1
 192 128 l 1
 256 128 l 1
 256 192 l 1
 256 256 l 1
 256 320 l 1
 256 384 l 1
 256 448 l 1
 256 512 l 1
EndSplineSet
EndChar

StartChar: k
Encoding: 107 107 75
Width: 576
Flags: HW
LayerCount: 2
Fore
SplineSet
0 768 m 1
 64 768 l 1
 128 768 l 1
 128 704 l 1
 128 640 l 1
 128 576 l 1
 128 512 l 1
 128 448 l 1
 128 384 l 1
 192 384 l 1
 192 448 l 1
 256 448 l 1
 256 512 l 1
 320 512 l 1
 320 576 l 1
 384 576 l 1
 448 576 l 5
 448 512 l 1
 448 448 l 1
 384 448 l 1
 384 384 l 1
 320 384 l 1
 320 320 l 1
 256 320 l 1
 256 256 l 1
 320 256 l 1
 320 192 l 1
 384 192 l 1
 384 128 l 1
 448 128 l 1
 448 64 l 1
 448 0 l 1
 384 0 l 1
 320 0 l 1
 320 64 l 1
 256 64 l 1
 256 128 l 1
 192 128 l 1
 192 192 l 1
 128 192 l 1
 128 128 l 1
 128 64 l 1
 128 0 l 1
 64 0 l 1
 0 0 l 1
 0 64 l 1
 0 128 l 1
 0 192 l 1
 0 256 l 1
 0 320 l 1
 0 384 l 1
 0 448 l 1
 0 512 l 1
 0 576 l 1
 0 640 l 1
 0 704 l 1
 0 768 l 1
EndSplineSet
EndChar

StartChar: l
Encoding: 108 108 76
Width: 384
Flags: HW
LayerCount: 2
Fore
SplineSet
0 768 m 1
 64 768 l 1
 128 768 l 1
 128 704 l 1
 128 640 l 1
 128 576 l 1
 128 512 l 1
 128 448 l 1
 128 384 l 1
 128 320 l 1
 128 256 l 1
 128 192 l 1
 128 128 l 1
 192 128 l 1
 256 128 l 5
 256 64 l 1
 256 0 l 1
 192 0 l 1
 128 0 l 1
 64 0 l 1
 64 64 l 1
 0 64 l 1
 0 128 l 1
 0 192 l 1
 0 256 l 1
 0 320 l 1
 0 384 l 1
 0 448 l 1
 0 512 l 1
 0 576 l 1
 0 640 l 1
 0 704 l 1
 0 768 l 1
EndSplineSet
EndChar

StartChar: m
Encoding: 109 109 77
Width: 640
Flags: HW
LayerCount: 2
Fore
SplineSet
0 512 m 1
 64 512 l 1
 128 512 l 1
 192 512 l 1
 256 512 l 1
 320 512 l 1
 384 512 l 1
 448 512 l 1
 448 448 l 1
 512 448 l 1
 512 384 l 1
 512 320 l 1
 512 256 l 1
 512 192 l 1
 512 128 l 1
 512 64 l 1
 512 0 l 1
 448 0 l 1
 384 0 l 1
 384 64 l 1
 384 128 l 1
 384 192 l 1
 384 256 l 1
 384 320 l 1
 384 384 l 1
 320 384 l 1
 320 320 l 1
 320 256 l 1
 320 192 l 1
 320 128 l 1
 320 64 l 1
 320 0 l 1
 256 0 l 1
 192 0 l 1
 192 64 l 1
 192 128 l 1
 192 192 l 1
 192 256 l 1
 192 320 l 1
 192 384 l 1
 128 384 l 1
 128 320 l 1
 128 256 l 1
 128 192 l 1
 128 128 l 1
 128 64 l 1
 128 0 l 1
 64 0 l 1
 0 0 l 1
 0 64 l 1
 0 128 l 1
 0 192 l 1
 0 256 l 1
 0 320 l 1
 0 384 l 1
 0 448 l 1
 0 512 l 1
EndSplineSet
EndChar

StartChar: n
Encoding: 110 110 78
Width: 640
Flags: HW
LayerCount: 2
Fore
SplineSet
0 512 m 1
 64 512 l 1
 128 512 l 1
 192 512 l 1
 256 512 l 1
 320 512 l 1
 384 512 l 1
 448 512 l 1
 448 448 l 1
 512 448 l 1
 512 384 l 1
 512 320 l 1
 512 256 l 1
 512 192 l 1
 512 128 l 1
 512 64 l 1
 512 0 l 1
 448 0 l 1
 384 0 l 1
 384 64 l 1
 384 128 l 1
 384 192 l 1
 384 256 l 1
 384 320 l 1
 384 384 l 1
 320 384 l 1
 256 384 l 1
 192 384 l 1
 128 384 l 1
 128 320 l 1
 128 256 l 1
 128 192 l 1
 128 128 l 1
 128 64 l 1
 128 0 l 1
 64 0 l 1
 0 0 l 1
 0 64 l 1
 0 128 l 1
 0 192 l 1
 0 256 l 1
 0 320 l 1
 0 384 l 1
 0 448 l 1
 0 512 l 1
EndSplineSet
EndChar

StartChar: o
Encoding: 111 111 79
Width: 640
Flags: HW
LayerCount: 2
Fore
SplineSet
64 512 m 1
 128 512 l 1
 192 512 l 1
 256 512 l 1
 320 512 l 1
 384 512 l 1
 448 512 l 1
 448 448 l 1
 512 448 l 1
 512 384 l 1
 512 320 l 1
 512 256 l 1
 512 192 l 1
 512 128 l 1
 512 64 l 1
 448 64 l 1
 448 0 l 1
 384 0 l 1
 320 0 l 1
 256 0 l 1
 192 0 l 1
 128 0 l 1
 64 0 l 1
 64 64 l 1
 0 64 l 1
 0 128 l 1
 0 192 l 1
 0 256 l 1
 0 320 l 1
 0 384 l 1
 0 448 l 1
 64 448 l 1
 64 512 l 1
128 384 m 1
 128 320 l 1
 128 256 l 1
 128 192 l 1
 128 128 l 1
 192 128 l 1
 256 128 l 1
 320 128 l 1
 384 128 l 1
 384 192 l 1
 384 256 l 1
 384 320 l 1
 384 384 l 1
 320 384 l 1
 256 384 l 1
 192 384 l 1
 128 384 l 1
EndSplineSet
EndChar

StartChar: p
Encoding: 112 112 80
Width: 640
Flags: HW
LayerCount: 2
Fore
SplineSet
64 512 m 1
 128 512 l 1
 192 512 l 1
 256 512 l 1
 320 512 l 1
 384 512 l 1
 448 512 l 1
 448 448 l 1
 512 448 l 1
 512 384 l 1
 512 320 l 1
 512 256 l 1
 512 192 l 1
 512 128 l 1
 512 64 l 1
 448 64 l 1
 448 0 l 1
 384 0 l 1
 320 0 l 1
 256 0 l 1
 192 0 l 1
 128 0 l 1
 128 -64 l 1
 128 -128 l 1
 128 -192 l 1
 128 -256 l 1
 64 -256 l 1
 0 -256 l 1
 0 -192 l 1
 0 -128 l 1
 0 -64 l 1
 0 0 l 1
 0 64 l 1
 0 128 l 1
 0 192 l 1
 0 256 l 1
 0 320 l 1
 0 384 l 1
 0 448 l 1
 64 448 l 1
 64 512 l 1
128 384 m 1
 128 320 l 1
 128 256 l 1
 128 192 l 1
 128 128 l 1
 192 128 l 1
 256 128 l 1
 320 128 l 1
 384 128 l 1
 384 192 l 1
 384 256 l 1
 384 320 l 1
 384 384 l 1
 320 384 l 1
 256 384 l 1
 192 384 l 1
 128 384 l 1
EndSplineSet
EndChar

StartChar: q
Encoding: 113 113 81
Width: 640
Flags: HW
LayerCount: 2
Fore
SplineSet
64 512 m 1
 128 512 l 1
 192 512 l 1
 256 512 l 1
 320 512 l 1
 384 512 l 1
 448 512 l 1
 448 448 l 1
 512 448 l 1
 512 384 l 1
 512 320 l 1
 512 256 l 1
 512 192 l 1
 512 128 l 1
 512 64 l 1
 512 0 l 1
 512 -64 l 1
 512 -128 l 1
 512 -192 l 1
 512 -256 l 1
 448 -256 l 1
 384 -256 l 1
 384 -192 l 1
 384 -128 l 1
 384 -64 l 1
 384 0 l 1
 320 0 l 1
 256 0 l 1
 192 0 l 1
 128 0 l 1
 64 0 l 1
 64 64 l 1
 0 64 l 1
 0 128 l 1
 0 192 l 1
 0 256 l 1
 0 320 l 1
 0 384 l 1
 0 448 l 1
 64 448 l 1
 64 512 l 1
128 384 m 1
 128 320 l 1
 128 256 l 1
 128 192 l 1
 128 128 l 1
 192 128 l 1
 256 128 l 1
 320 128 l 1
 384 128 l 1
 384 192 l 1
 384 256 l 1
 384 320 l 1
 384 384 l 1
 320 384 l 1
 256 384 l 1
 192 384 l 1
 128 384 l 1
EndSplineSet
EndChar

StartChar: r
Encoding: 114 114 82
Width: 640
Flags: HW
LayerCount: 2
Fore
SplineSet
0 512 m 1
 64 512 l 1
 128 512 l 1
 128 448 l 1
 192 448 l 1
 192 512 l 1
 256 512 l 1
 320 512 l 1
 384 512 l 1
 448 512 l 1
 448 448 l 1
 512 448 l 1
 512 384 l 1
 512 320 l 1
 448 320 l 1
 384 320 l 1
 384 384 l 1
 320 384 l 1
 256 384 l 1
 192 384 l 1
 192 320 l 1
 128 320 l 1
 128 256 l 1
 128 192 l 1
 128 128 l 1
 128 64 l 1
 128 0 l 1
 64 0 l 1
 0 0 l 1
 0 64 l 1
 0 128 l 1
 0 192 l 1
 0 256 l 1
 0 320 l 1
 0 384 l 1
 0 448 l 1
 0 512 l 1
EndSplineSet
EndChar

StartChar: s
Encoding: 115 115 83
Width: 640
Flags: HW
LayerCount: 2
Fore
SplineSet
64 512 m 1
 128 512 l 1
 192 512 l 1
 256 512 l 1
 320 512 l 1
 384 512 l 1
 448 512 l 1
 448 448 l 1
 512 448 l 1
 512 384 l 1
 448 384 l 1
 384 384 l 1
 320 384 l 1
 256 384 l 1
 192 384 l 1
 128 384 l 1
 128 320 l 1
 192 320 l 1
 256 320 l 1
 320 320 l 1
 384 320 l 1
 448 320 l 1
 448 256 l 1
 512 256 l 1
 512 192 l 1
 512 128 l 1
 512 64 l 1
 448 64 l 1
 448 0 l 1
 384 0 l 1
 320 0 l 1
 256 0 l 1
 192 0 l 1
 128 0 l 1
 64 0 l 1
 64 64 l 1
 0 64 l 1
 0 128 l 1
 64 128 l 1
 128 128 l 1
 192 128 l 1
 256 128 l 1
 320 128 l 1
 384 128 l 1
 384 192 l 1
 320 192 l 1
 256 192 l 1
 192 192 l 1
 128 192 l 1
 64 192 l 1
 64 256 l 1
 0 256 l 1
 0 320 l 1
 0 384 l 1
 0 448 l 1
 64 448 l 1
 64 512 l 1
EndSplineSet
EndChar

StartChar: t
Encoding: 116 116 84
Width: 512
Flags: HW
LayerCount: 2
Fore
SplineSet
128 768 m 1
 192 768 l 1
 256 768 l 1
 256 704 l 1
 256 640 l 1
 256 576 l 1
 256 512 l 1
 320 512 l 1
 384 512 l 1
 384 448 l 1
 384 384 l 1
 320 384 l 1
 256 384 l 1
 256 320 l 1
 256 256 l 1
 256 192 l 1
 256 128 l 1
 320 128 l 1
 320 64 l 1
 320 0 l 1
 256 0 l 1
 192 0 l 1
 192 64 l 1
 128 64 l 1
 128 128 l 1
 128 192 l 1
 128 256 l 1
 128 320 l 1
 128 384 l 1
 64 384 l 1
 0 384 l 1
 0 448 l 1
 0 512 l 1
 64 512 l 1
 128 512 l 1
 128 576 l 1
 128 640 l 1
 128 704 l 1
 128 768 l 1
EndSplineSet
EndChar

StartChar: u
Encoding: 117 117 85
Width: 640
Flags: HW
LayerCount: 2
Fore
SplineSet
0 512 m 1
 64 512 l 1
 128 512 l 1
 128 448 l 1
 128 384 l 1
 128 320 l 1
 128 256 l 1
 128 192 l 1
 128 128 l 1
 192 128 l 1
 256 128 l 1
 320 128 l 1
 384 128 l 1
 384 192 l 1
 384 256 l 1
 384 320 l 1
 384 384 l 1
 384 448 l 1
 384 512 l 1
 448 512 l 1
 512 512 l 1
 512 448 l 1
 512 384 l 1
 512 320 l 1
 512 256 l 1
 512 192 l 1
 512 128 l 1
 512 64 l 1
 448 64 l 1
 448 0 l 1
 384 0 l 1
 320 0 l 1
 256 0 l 1
 192 0 l 1
 128 0 l 1
 64 0 l 1
 64 64 l 1
 0 64 l 1
 0 128 l 1
 0 192 l 1
 0 256 l 1
 0 320 l 1
 0 384 l 1
 0 448 l 1
 0 512 l 1
EndSplineSet
EndChar

StartChar: v
Encoding: 118 118 86
Width: 640
Flags: HW
LayerCount: 2
Fore
SplineSet
0 512 m 1
 64 512 l 1
 128 512 l 1
 128 448 l 1
 128 384 l 1
 128 320 l 1
 128 256 l 1
 192 256 l 1
 192 192 l 1
 256 192 l 1
 320 192 l 1
 320 256 l 1
 384 256 l 1
 384 320 l 1
 384 384 l 1
 384 448 l 1
 384 512 l 1
 448 512 l 1
 512 512 l 1
 512 448 l 1
 512 384 l 1
 512 320 l 1
 512 256 l 1
 512 192 l 1
 448 192 l 1
 448 128 l 1
 384 128 l 1
 384 64 l 1
 320 64 l 1
 320 0 l 1
 256 0 l 1
 192 0 l 1
 192 64 l 1
 128 64 l 1
 128 128 l 1
 64 128 l 1
 64 192 l 1
 0 192 l 1
 0 256 l 1
 0 320 l 1
 0 384 l 1
 0 448 l 1
 0 512 l 1
EndSplineSet
EndChar

StartChar: w
Encoding: 119 119 87
Width: 640
Flags: HW
LayerCount: 2
Fore
SplineSet
0 512 m 1
 64 512 l 1
 128 512 l 1
 128 448 l 1
 128 384 l 1
 128 320 l 1
 128 256 l 1
 128 192 l 1
 128 128 l 1
 192 128 l 1
 192 192 l 1
 192 256 l 1
 192 320 l 1
 192 384 l 1
 256 384 l 1
 320 384 l 1
 320 320 l 1
 320 256 l 1
 320 192 l 1
 320 128 l 1
 384 128 l 1
 384 192 l 1
 384 256 l 1
 384 320 l 1
 384 384 l 1
 384 448 l 1
 384 512 l 1
 448 512 l 1
 512 512 l 1
 512 448 l 1
 512 384 l 1
 512 320 l 1
 512 256 l 1
 512 192 l 1
 512 128 l 1
 512 64 l 1
 448 64 l 1
 448 0 l 1
 384 0 l 1
 320 0 l 1
 256 0 l 1
 192 0 l 1
 128 0 l 1
 64 0 l 1
 64 64 l 1
 0 64 l 1
 0 128 l 1
 0 192 l 1
 0 256 l 1
 0 320 l 1
 0 384 l 1
 0 448 l 1
 0 512 l 1
EndSplineSet
EndChar

StartChar: x
Encoding: 120 120 88
Width: 640
Flags: HW
LayerCount: 2
Fore
SplineSet
0 512 m 1
 64 512 l 1
 128 512 l 1
 128 448 l 1
 192 448 l 1
 192 384 l 1
 256 384 l 1
 320 384 l 1
 320 448 l 1
 384 448 l 1
 384 512 l 1
 448 512 l 1
 512 512 l 1
 512 448 l 1
 512 384 l 1
 448 384 l 1
 448 320 l 1
 384 320 l 1
 384 256 l 1
 384 192 l 1
 448 192 l 1
 448 128 l 1
 512 128 l 1
 512 64 l 1
 512 0 l 1
 448 0 l 1
 384 0 l 1
 384 64 l 1
 320 64 l 1
 320 128 l 1
 256 128 l 1
 192 128 l 1
 192 64 l 1
 128 64 l 1
 128 0 l 1
 64 0 l 1
 0 0 l 1
 0 64 l 1
 0 128 l 1
 64 128 l 1
 64 192 l 1
 128 192 l 1
 128 256 l 1
 128 320 l 1
 64 320 l 1
 64 384 l 1
 0 384 l 1
 0 448 l 1
 0 512 l 1
EndSplineSet
EndChar

StartChar: y
Encoding: 121 121 89
Width: 640
Flags: HW
LayerCount: 2
Fore
SplineSet
0 512 m 1
 64 512 l 1
 128 512 l 1
 128 448 l 1
 128 384 l 1
 128 320 l 1
 128 256 l 1
 128 192 l 1
 128 128 l 1
 192 128 l 1
 256 128 l 1
 320 128 l 1
 384 128 l 1
 384 192 l 1
 384 256 l 1
 384 320 l 1
 384 384 l 1
 384 448 l 1
 384 512 l 1
 448 512 l 1
 512 512 l 1
 512 448 l 1
 512 384 l 1
 512 320 l 1
 512 256 l 1
 512 192 l 1
 512 128 l 1
 512 64 l 1
 512 0 l 1
 512 -64 l 1
 512 -128 l 1
 512 -192 l 1
 448 -192 l 1
 448 -256 l 1
 384 -256 l 1
 320 -256 l 1
 256 -256 l 1
 192 -256 l 1
 128 -256 l 1
 64 -256 l 1
 64 -192 l 1
 0 -192 l 1
 0 -128 l 1
 64 -128 l 1
 128 -128 l 1
 192 -128 l 1
 256 -128 l 1
 320 -128 l 1
 384 -128 l 1
 384 -64 l 1
 384 0 l 1
 320 0 l 1
 256 0 l 1
 192 0 l 1
 128 0 l 1
 64 0 l 1
 64 64 l 1
 0 64 l 1
 0 128 l 1
 0 192 l 1
 0 256 l 1
 0 320 l 1
 0 384 l 1
 0 448 l 1
 0 512 l 1
EndSplineSet
EndChar

StartChar: z
Encoding: 122 122 90
Width: 640
Flags: HW
LayerCount: 2
Fore
SplineSet
0 512 m 1
 64 512 l 1
 128 512 l 1
 192 512 l 1
 256 512 l 1
 320 512 l 1
 384 512 l 1
 448 512 l 1
 512 512 l 1
 512 448 l 1
 512 384 l 1
 512 320 l 1
 512 256 l 1
 448 256 l 1
 384 256 l 1
 384 192 l 1
 320 192 l 1
 256 192 l 1
 256 128 l 1
 320 128 l 1
 384 128 l 1
 448 128 l 1
 512 128 l 1
 512 64 l 1
 512 0 l 1
 448 0 l 1
 384 0 l 1
 320 0 l 1
 256 0 l 1
 192 0 l 1
 128 0 l 1
 64 0 l 1
 0 0 l 1
 0 64 l 1
 0 128 l 1
 0 192 l 1
 64 192 l 1
 128 192 l 1
 128 256 l 1
 192 256 l 1
 256 256 l 1
 256 320 l 1
 320 320 l 1
 384 320 l 1
 384 384 l 1
 320 384 l 1
 256 384 l 1
 192 384 l 1
 128 384 l 1
 64 384 l 1
 0 384 l 1
 0 448 l 1
 0 512 l 1
EndSplineSet
EndChar

StartChar: slash
Encoding: 47 47 93
Width: 640
Flags: HW
LayerCount: 2
Fore
SplineSet
384 768 m 1
 448 768 l 1
 512 768 l 1
 512 704 l 1
 512 640 l 1
 512 576 l 1
 448 576 l 1
 448 512 l 1
 384 512 l 1
 384 448 l 1
 384 384 l 1
 320 384 l 1
 320 320 l 1
 256 320 l 1
 256 256 l 1
 256 192 l 1
 192 192 l 1
 192 128 l 1
 128 128 l 1
 128 64 l 1
 128 0 l 1
 64 0 l 1
 0 0 l 1
 0 64 l 1
 0 128 l 1
 0 192 l 1
 64 192 l 1
 64 256 l 1
 128 256 l 1
 128 320 l 1
 128 384 l 1
 192 384 l 1
 192 448 l 1
 256 448 l 1
 256 512 l 1
 256 576 l 1
 320 576 l 1
 320 640 l 1
 384 640 l 1
 384 704 l 1
 384 768 l 1
EndSplineSet
EndChar

StartChar: backslash
Encoding: 92 92 94
Width: 640
Flags: HW
LayerCount: 2
Fore
SplineSet
0 768 m 1
 64 768 l 1
 128 768 l 1
 128 704 l 1
 128 640 l 1
 192 640 l 1
 192 576 l 1
 256 576 l 1
 256 512 l 1
 256 448 l 1
 320 448 l 1
 320 384 l 1
 384 384 l 1
 384 320 l 1
 384 256 l 1
 448 256 l 1
 448 192 l 1
 512 192 l 1
 512 128 l 1
 512 64 l 1
 512 0 l 1
 448 0 l 1
 384 0 l 1
 384 64 l 1
 384 128 l 1
 320 128 l 1
 320 192 l 1
 256 192 l 1
 256 256 l 1
 256 320 l 1
 192 320 l 1
 192 384 l 1
 128 384 l 1
 128 448 l 1
 128 512 l 1
 64 512 l 1
 64 576 l 1
 0 576 l 1
 0 640 l 1
 0 704 l 1
 0 768 l 1
EndSplineSet
EndChar

StartChar: grave
Encoding: 96 96 95
Width: 384
Flags: HW
LayerCount: 2
Fore
SplineSet
0 768 m 1
 64 768 l 1
 128 768 l 1
 128 704 l 1
 192 704 l 1
 192 640 l 1
 256 640 l 5
 256 576 l 1
 256 512 l 1
 192 512 l 1
 128 512 l 1
 128 576 l 1
 64 576 l 1
 64 640 l 1
 0 640 l 1
 0 704 l 1
 0 768 l 1
EndSplineSet
EndChar

StartChar: braceleft
Encoding: 123 123 96
Width: 512
Flags: HW
LayerCount: 2
Fore
SplineSet
192 768 m 5
 256 768 l 5
 320 768 l 5
 384 768 l 5
 384 704 l 5
 384 640 l 5
 320 640 l 5
 256 640 l 5
 256 576 l 5
 256 512 l 5
 256 448 l 5
 192 448 l 5
 192 384 l 5
 192 320 l 5
 256 320 l 5
 256 256 l 5
 256 192 l 5
 256 128 l 5
 320 128 l 5
 384 128 l 5
 384 64 l 5
 384 0 l 5
 320 0 l 5
 256 0 l 5
 192 0 l 5
 192 64 l 5
 128 64 l 5
 128 128 l 5
 128 192 l 5
 128 256 l 5
 64 256 l 5
 64 320 l 5
 0 320 l 5
 0 384 l 5
 0 448 l 5
 64 448 l 5
 64 512 l 5
 128 512 l 5
 128 576 l 5
 128 640 l 5
 128 704 l 5
 192 704 l 5
 192 768 l 5
EndSplineSet
EndChar

StartChar: braceright
Encoding: 125 125 97
Width: 512
Flags: HW
LayerCount: 2
Fore
SplineSet
0 768 m 1
 64 768 l 1
 128 768 l 1
 192 768 l 1
 192 704 l 1
 256 704 l 1
 256 640 l 1
 256 576 l 1
 256 512 l 1
 320 512 l 1
 320 448 l 1
 384 448 l 5
 384 384 l 1
 384 320 l 1
 320 320 l 1
 320 256 l 1
 256 256 l 1
 256 192 l 1
 256 128 l 1
 256 64 l 1
 192 64 l 1
 192 0 l 1
 128 0 l 1
 64 0 l 1
 0 0 l 1
 0 64 l 1
 0 128 l 1
 64 128 l 1
 128 128 l 1
 128 192 l 1
 128 256 l 1
 128 320 l 1
 192 320 l 1
 192 384 l 1
 192 448 l 1
 128 448 l 1
 128 512 l 1
 128 576 l 1
 128 640 l 1
 64 640 l 1
 0 640 l 1
 0 704 l 1
 0 768 l 1
EndSplineSet
EndChar

